<?xml version="1.0" encoding="UTF-8" standalone="no"?>
<!-- Created with Inkscape (http://www.inkscape.org/) -->

<svg
   width="16"
   height="16"
   viewBox="0 0 4.2333333 4.2333333"
   version="1.1"
   id="svg1"
   inkscape:version="1.3.2 (091e20ef0f, 2023-11-25)"
   sodipodi:docname="maximize-symbolic.svg"
   xmlns:inkscape="http://www.inkscape.org/namespaces/inkscape"
   xmlns:sodipodi="http://sodipodi.sourceforge.net/DTD/sodipodi-0.dtd"
   xmlns="http://www.w3.org/2000/svg"
   xmlns:svg="http://www.w3.org/2000/svg">
  <sodipodi:namedview
     id="namedview1"
     pagecolor="#00f32e"
     bordercolor="#000000"
     borderopacity="0.25"
     inkscape:showpageshadow="2"
     inkscape:pageopacity="0.0"
     inkscape:pagecheckerboard="0"
     inkscape:deskcolor="#d1d1d1"
     inkscape:document-units="px"
     showgrid="true"
     inkscape:zoom="32"
     inkscape:cx="5.890625"
     inkscape:cy="12.1875"
     inkscape:window-width="1390"
     inkscape:window-height="1392"
     inkscape:window-x="0"
     inkscape:window-y="0"
     inkscape:window-maximized="0"
     inkscape:current-layer="g1847">
    <inkscape:grid
       id="grid1"
       units="px"
       originx="0"
       originy="0"
       spacingx="0.26458333"
       spacingy="0.26458333"
       empcolor="#0099e5"
       empopacity="0.30196078"
       color="#0099e5"
       opacity="0.14901961"
       empspacing="1"
       dotted="false"
       gridanglex="30"
       gridanglez="30"
       visible="true" />
    <sodipodi:guide
       position="0,42.333333"
       orientation="0,128"
       id="guide1"
       inkscape:locked="false" />
    <sodipodi:guide
       position="33.866666,42.333333"
       orientation="160,0"
       id="guide2"
       inkscape:locked="false" />
    <sodipodi:guide
       position="33.866666,0"
       orientation="0,-128"
       id="guide3"
       inkscape:locked="false" />
    <sodipodi:guide
       position="0,0"
       orientation="-160,0"
       id="guide4"
       inkscape:locked="false" />
  </sodipodi:namedview>
  <defs
     id="defs1" />
  <g
     inkscape:label="Layer 1"
     inkscape:groupmode="layer"
     id="layer1"
     style="display:inline" />
  <g
     inkscape:groupmode="layer"
     id="g1847"
     inkscape:label="maxmize-symbolic"
     transform="translate(-12.7,-8.2020833)"
     style="display:inline">
    <path
       id="path1616"
       style="display:inline;fill:#ffffff;fill-rule:evenodd;stroke-width:0.265203"
       d="m 12.7,8.2020833 h 0.264583 V 8.4666666 H 12.7 Z" />
    <path
       id="path1617"
       style="display:inline;fill:#ffffff;fill-rule:evenodd;stroke-width:0.265203"
       d="m 12.964583,8.2020833 h 0.264583 v 0.2645833 h -0.264583 z" />
    <path
       id="path1618"
       style="display:inline;fill:#ffffff;fill-rule:evenodd;stroke-width:0.265203"
       d="m 13.229166,8.2020833 h 0.264583 v 0.2645833 h -0.264583 z" />
    <path
       id="path1619"
       style="display:inline;fill:#ffffff;fill-rule:evenodd;stroke-width:0.265203"
       d="m 13.49375,8.2020833 h 0.264583 V 8.4666666 H 13.49375 Z" />
    <path
       id="path1620"
       style="display:inline;fill:#ffffff;fill-rule:evenodd;stroke-width:0.265203"
       d="m 13.758333,8.2020833 h 0.264583 v 0.2645833 h -0.264583 z" />
    <path
       id="path1621"
       style="display:inline;fill:#ffffff;fill-rule:evenodd;stroke-width:0.265203"
       d="m 14.022916,8.2020833 h 0.264583 v 0.2645833 h -0.264583 z" />
    <path
       id="path1622"
       style="display:inline;fill:#ffffff;fill-rule:evenodd;stroke-width:0.265203"
       d="m 14.2875,8.2020833 h 0.264583 V 8.4666666 H 14.2875 Z" />
    <path
       id="path1623"
       style="display:inline;fill:#ffffff;fill-rule:evenodd;stroke-width:0.265203"
       d="m 14.552083,8.2020833 h 0.264583 v 0.2645833 h -0.264583 z" />
    <path
       id="path1624"
       style="display:inline;fill:#ffffff;fill-rule:evenodd;stroke-width:0.265203"
       d="m 14.816666,8.2020833 h 0.264583 v 0.2645833 h -0.264583 z" />
    <path
       id="path1625"
       style="display:inline;fill:#ffffff;fill-rule:evenodd;stroke-width:0.265203"
       d="m 15.08125,8.2020833 h 0.264583 V 8.4666666 H 15.08125 Z" />
    <path
       id="path1626"
       style="display:inline;fill:#ffffff;fill-rule:evenodd;stroke-width:0.265203"
       d="m 15.345833,8.2020833 h 0.264583 v 0.2645833 h -0.264583 z" />
    <path
       id="path1627"
       style="display:inline;fill:#ffffff;fill-rule:evenodd;stroke-width:0.265203"
       d="m 15.610416,8.2020833 h 0.264583 v 0.2645833 h -0.264583 z" />
    <path
       id="path1628"
       style="display:inline;fill:#ffffff;fill-rule:evenodd;stroke-width:0.265203"
       d="m 15.875,8.2020833 h 0.264583 V 8.4666666 H 15.875 Z" />
    <path
       id="path1629"
       style="display:inline;fill:#ffffff;fill-rule:evenodd;stroke-width:0.265203"
       d="m 16.139583,8.2020833 h 0.264583 v 0.2645833 h -0.264583 z" />
    <path
       id="path1630"
       style="display:inline;fill:#ffffff;fill-rule:evenodd;stroke-width:0.265203"
       d="m 16.404166,8.2020833 h 0.264583 v 0.2645833 h -0.264583 z" />
    <path
       id="path1631"
       style="display:inline;fill:#ffffff;fill-rule:evenodd;stroke-width:0.265203"
       d="m 16.66875,8.2020833 h 0.264583 V 8.4666666 H 16.66875 Z" />
    <path
       id="path1632"
       style="display:inline;fill:#ffffff;fill-rule:evenodd;stroke-width:0.265203"
       d="m 12.7,8.4666666 h 0.264583 V 8.7312499 H 12.7 Z" />
    <path
       id="path1633"
       style="display:inline;fill:#ffffff;fill-rule:evenodd;stroke-width:0.265203"
       d="m 12.7,8.73125 h 0.264583 V 8.9958333 H 12.7 Z" />
    <path
       id="path1634"
       style="display:inline;fill:#ffffff;fill-rule:evenodd;stroke-width:0.265203"
       d="m 12.7,8.9958333 h 0.264583 V 9.2604166 H 12.7 Z" />
    <path
       id="path1635"
       style="display:inline;fill:#ffffff;fill-rule:evenodd;stroke-width:0.265203"
       d="m 12.7,9.2604166 h 0.264583 V 9.5249999 H 12.7 Z" />
    <path
       id="path1636"
       style="display:inline;fill:#ffffff;fill-rule:evenodd;stroke-width:0.265203"
       d="m 12.7,9.525 h 0.264583 V 9.7895833 H 12.7 Z" />
    <path
       id="path1637"
       style="display:inline;fill:#ffffff;fill-rule:evenodd;stroke-width:0.265203"
       d="m 12.7,9.7895833 h 0.264583 V 10.054167 H 12.7 Z" />
    <path
       id="path1638"
       style="display:inline;fill:#ffffff;fill-rule:evenodd;stroke-width:0.265203"
       d="m 12.7,10.054167 h 0.264583 V 10.31875 H 12.7 Z" />
    <path
       id="path1639"
       style="display:inline;fill:#ffffff;fill-rule:evenodd;stroke-width:0.265203"
       d="m 12.7,10.31875 h 0.264583 v 0.264583 H 12.7 Z" />
    <path
       id="path1640"
       style="display:inline;fill:#ffffff;fill-rule:evenodd;stroke-width:0.265203"
       d="m 12.7,10.583333 h 0.264583 v 0.264583 H 12.7 Z" />
    <path
       id="path1641"
       style="display:inline;fill:#ffffff;fill-rule:evenodd;stroke-width:0.265203"
       d="m 12.7,10.847917 h 0.264583 V 11.1125 H 12.7 Z" />
    <path
       id="path1642"
       style="display:inline;fill:#ffffff;fill-rule:evenodd;stroke-width:0.265203"
       d="m 12.7,11.1125 h 0.264583 v 0.264583 H 12.7 Z" />
    <path
       id="path1643"
       style="display:inline;fill:#ffffff;fill-rule:evenodd;stroke-width:0.265203"
       d="m 12.7,11.377083 h 0.264583 v 0.264583 H 12.7 Z" />
    <path
       id="path1644"
       style="display:inline;fill:#ffffff;fill-rule:evenodd;stroke-width:0.265203"
       d="m 12.7,11.641667 h 0.264583 V 11.90625 H 12.7 Z" />
    <path
       id="path1645"
       style="display:inline;fill:#ffffff;fill-rule:evenodd;stroke-width:0.265203"
       d="m 12.7,11.90625 h 0.264583 v 0.264583 H 12.7 Z" />
    <path
       id="path1646"
       style="display:inline;fill:#ffffff;fill-rule:evenodd;stroke-width:0.265203"
       d="m 12.7,12.170833 h 0.264583 v 0.264583 H 12.7 Z" />
    <path
       id="path1647"
       style="display:inline;fill:#ffffff;fill-rule:evenodd;stroke-width:0.265203"
       d="m 16.66875,8.4666666 h 0.264583 V 8.7312499 H 16.66875 Z" />
    <path
       id="path1648"
       style="display:inline;fill:#ffffff;fill-rule:evenodd;stroke-width:0.265203"
       d="m 16.66875,8.73125 h 0.264583 V 8.9958333 H 16.66875 Z" />
    <path
       id="path1649"
       style="display:inline;fill:#ffffff;fill-rule:evenodd;stroke-width:0.265203"
       d="m 16.66875,8.9958333 h 0.264583 V 9.2604166 H 16.66875 Z" />
    <path
       id="path1650"
       style="display:inline;fill:#ffffff;fill-rule:evenodd;stroke-width:0.265203"
       d="m 16.66875,9.2604166 h 0.264583 V 9.5249999 H 16.66875 Z" />
    <path
       id="path1651"
       style="display:inline;fill:#ffffff;fill-rule:evenodd;stroke-width:0.265203"
       d="m 16.66875,9.525 h 0.264583 V 9.7895833 H 16.66875 Z" />
    <path
       id="path1652"
       style="display:inline;fill:#ffffff;fill-rule:evenodd;stroke-width:0.265203"
       d="m 16.66875,9.7895833 h 0.264583 V 10.054167 H 16.66875 Z" />
    <path
       id="path1653"
       style="display:inline;fill:#ffffff;fill-rule:evenodd;stroke-width:0.265203"
       d="m 16.66875,10.054167 h 0.264583 V 10.31875 H 16.66875 Z" />
    <path
       id="path1654"
       style="display:inline;fill:#ffffff;fill-rule:evenodd;stroke-width:0.265203"
       d="m 16.66875,10.31875 h 0.264583 v 0.264583 H 16.66875 Z" />
    <path
       id="path1655"
       style="display:inline;fill:#ffffff;fill-rule:evenodd;stroke-width:0.265203"
       d="m 16.66875,10.583333 h 0.264583 v 0.264583 H 16.66875 Z" />
    <path
       id="path1656"
       style="display:inline;fill:#ffffff;fill-rule:evenodd;stroke-width:0.265203"
       d="m 16.66875,10.847917 h 0.264583 V 11.1125 H 16.66875 Z" />
    <path
       id="path1657"
       style="display:inline;fill:#ffffff;fill-rule:evenodd;stroke-width:0.265203"
       d="m 16.66875,11.1125 h 0.264583 v 0.264583 H 16.66875 Z" />
    <path
       id="path1658"
       style="display:inline;fill:#ffffff;fill-rule:evenodd;stroke-width:0.265203"
       d="m 16.66875,11.377083 h 0.264583 v 0.264583 H 16.66875 Z" />
    <path
       id="path1659"
       style="display:inline;fill:#ffffff;fill-rule:evenodd;stroke-width:0.265203"
       d="m 16.66875,11.641667 h 0.264583 V 11.90625 H 16.66875 Z" />
    <path
       id="path1660"
       style="display:inline;fill:#ffffff;fill-rule:evenodd;stroke-width:0.265203"
       d="m 16.66875,11.90625 h 0.264583 v 0.264583 H 16.66875 Z" />
    <path
       id="path1661"
       style="display:inline;fill:#ffffff;fill-rule:evenodd;stroke-width:0.265203"
       d="m 16.66875,12.170833 h 0.264583 v 0.264583 H 16.66875 Z" />
    <path
       id="path1662"
       style="display:inline;fill:#ffffff;fill-rule:evenodd;stroke-width:0.265203"
       d="m 16.404166,12.170833 h 0.264583 v 0.264583 h -0.264583 z" />
    <path
       id="path1663"
       style="display:inline;fill:#ffffff;fill-rule:evenodd;stroke-width:0.265203"
       d="m 16.139583,12.170833 h 0.264583 v 0.264583 h -0.264583 z" />
    <path
       id="path1664"
       style="display:inline;fill:#ffffff;fill-rule:evenodd;stroke-width:0.265203"
       d="m 15.875,12.170833 h 0.264583 v 0.264583 H 15.875 Z" />
    <path
       id="path1665"
       style="display:inline;fill:#ffffff;fill-rule:evenodd;stroke-width:0.265203"
       d="m 15.610416,12.170833 h 0.264583 v 0.264583 h -0.264583 z" />
    <path
       id="path1666"
       style="display:inline;fill:#ffffff;fill-rule:evenodd;stroke-width:0.265203"
       d="m 15.345833,12.170833 h 0.264583 v 0.264583 h -0.264583 z" />
    <path
       id="path1667"
       style="display:inline;fill:#ffffff;fill-rule:evenodd;stroke-width:0.265203"
       d="m 15.08125,12.170833 h 0.264583 v 0.264583 H 15.08125 Z" />
    <path
       id="path1668"
       style="display:inline;fill:#ffffff;fill-rule:evenodd;stroke-width:0.265203"
       d="m 14.816666,12.170833 h 0.264583 v 0.264583 h -0.264583 z" />
    <path
       id="path1669"
       style="display:inline;fill:#ffffff;fill-rule:evenodd;stroke-width:0.265203"
       d="m 14.552083,12.170833 h 0.264583 v 0.264583 h -0.264583 z" />
    <path
       id="path1670"
       style="display:inline;fill:#ffffff;fill-rule:evenodd;stroke-width:0.265203"
       d="m 14.2875,12.170833 h 0.264583 v 0.264583 H 14.2875 Z" />
    <path
       id="path1671"
       style="display:inline;fill:#ffffff;fill-rule:evenodd;stroke-width:0.265203"
       d="m 14.022916,12.170833 h 0.264583 v 0.264583 h -0.264583 z" />
    <path
       id="path1672"
       style="display:inline;fill:#ffffff;fill-rule:evenodd;stroke-width:0.265203"
       d="m 13.758333,12.170833 h 0.264583 v 0.264583 h -0.264583 z" />
    <path
       id="path1673"
       style="display:inline;fill:#ffffff;fill-rule:evenodd;stroke-width:0.265203"
       d="m 13.49375,12.170833 h 0.264583 v 0.264583 H 13.49375 Z" />
    <path
       id="path1674"
       style="display:inline;fill:#ffffff;fill-rule:evenodd;stroke-width:0.265203"
       d="m 13.229166,12.170833 h 0.264583 v 0.264583 h -0.264583 z" />
    <path
       id="path1675"
       style="display:inline;fill:#ffffff;fill-rule:evenodd;stroke-width:0.265203"
       d="m 12.964583,12.170833 h 0.264583 v 0.264583 h -0.264583 z" />
    <path
       id="path1676"
       style="display:inline;fill:#ffffff;fill-rule:evenodd;stroke-width:0.265203"
       d="m 12.964583,11.641667 h 0.264583 v 0.264583 h -0.264583 z" />
    <path
       id="path1677"
       style="display:inline;fill:#ffffff;fill-rule:evenodd;stroke-width:0.265203"
       d="m 12.964583,11.377083 h 0.264583 v 0.264583 h -0.264583 z" />
    <path
       id="path1680"
       style="display:inline;fill:#ffffff;fill-rule:evenodd;stroke-width:0.265203"
       d="m 13.758333,11.1125 h 0.264583 v 0.264583 h -0.264583 z" />
    <path
       id="path1681"
       style="display:inline;fill:#ffffff;fill-rule:evenodd;stroke-width:0.265203"
       d="m 14.022916,11.1125 h 0.264583 v 0.264583 h -0.264583 z" />
    <path
       id="path1682"
       style="display:inline;fill:#ffffff;fill-rule:evenodd;stroke-width:0.265203"
       d="m 14.2875,11.1125 h 0.264583 v 0.264583 H 14.2875 Z" />
    <path
       id="path1683"
       style="display:inline;fill:#ffffff;fill-rule:evenodd;stroke-width:0.265203"
       d="m 14.552083,11.1125 h 0.264583 v 0.264583 h -0.264583 z" />
    <path
       id="path1684"
       style="display:inline;fill:#ffffff;fill-rule:evenodd;stroke-width:0.265203"
       d="m 14.816666,11.1125 h 0.264583 v 0.264583 h -0.264583 z" />
    <path
       id="path1685"
       style="display:inline;fill:#ffffff;fill-rule:evenodd;stroke-width:0.265203"
       d="m 15.08125,11.1125 h 0.264583 v 0.264583 H 15.08125 Z" />
    <path
       id="path1686"
       style="display:inline;fill:#ffffff;fill-rule:evenodd;stroke-width:0.265203"
       d="m 15.345833,11.1125 h 0.264583 v 0.264583 h -0.264583 z" />
    <path
       id="path1687"
       style="display:inline;fill:#ffffff;fill-rule:evenodd;stroke-width:0.265203"
       d="m 15.610416,11.1125 h 0.264583 v 0.264583 h -0.264583 z" />
    <path
       id="path1690"
       style="display:inline;fill:#ffffff;fill-rule:evenodd;stroke-width:0.265203"
       d="m 16.404166,11.377083 h 0.264583 v 0.264583 h -0.264583 z" />
    <path
       id="path1691"
       style="display:inline;fill:#ffffff;fill-rule:evenodd;stroke-width:0.265203"
       d="m 16.404166,11.641667 h 0.264583 v 0.264583 h -0.264583 z" />
    <path
       id="path1692"
       style="display:inline;fill:#ffffff;fill-rule:evenodd;stroke-width:0.265203"
       d="m 16.139583,11.90625 h 0.264583 v 0.264583 h -0.264583 z" />
    <path
       id="path1693"
       style="display:inline;fill:#ffffff;fill-rule:evenodd;stroke-width:0.265203"
       d="m 15.875,11.90625 h 0.264583 v 0.264583 H 15.875 Z" />
    <path
       id="path1694"
       style="display:inline;fill:#ffffff;fill-rule:evenodd;stroke-width:0.265203"
       d="m 15.610416,11.90625 h 0.264583 v 0.264583 h -0.264583 z" />
    <path
       id="path1695"
       style="display:inline;fill:#ffffff;fill-rule:evenodd;stroke-width:0.265203"
       d="m 15.345833,11.90625 h 0.264583 v 0.264583 h -0.264583 z" />
    <path
       id="path1696"
       style="display:inline;fill:#ffffff;fill-rule:evenodd;stroke-width:0.265203"
       d="m 15.08125,11.90625 h 0.264583 v 0.264583 H 15.08125 Z" />
    <path
       id="path1697"
       style="display:inline;fill:#ffffff;fill-rule:evenodd;stroke-width:0.265203"
       d="m 14.816666,11.90625 h 0.264583 v 0.264583 h -0.264583 z" />
    <path
       id="path1698"
       style="display:inline;fill:#ffffff;fill-rule:evenodd;stroke-width:0.265203"
       d="m 14.552083,11.90625 h 0.264583 v 0.264583 h -0.264583 z" />
    <path
       id="path1699"
       style="display:inline;fill:#ffffff;fill-rule:evenodd;stroke-width:0.265203"
       d="m 14.2875,11.90625 h 0.264583 v 0.264583 H 14.2875 Z" />
    <path
       id="path1700"
       style="display:inline;fill:#ffffff;fill-rule:evenodd;stroke-width:0.265203"
       d="m 14.022916,11.90625 h 0.264583 v 0.264583 h -0.264583 z" />
    <path
       id="path1701"
       style="display:inline;fill:#ffffff;fill-rule:evenodd;stroke-width:0.265203"
       d="m 13.758333,11.90625 h 0.264583 v 0.264583 h -0.264583 z" />
    <path
       id="path1702"
       style="display:inline;fill:#ffffff;fill-rule:evenodd;stroke-width:0.265203"
       d="m 13.49375,11.90625 h 0.264583 v 0.264583 H 13.49375 Z" />
    <path
       id="path1703"
       style="display:inline;fill:#ffffff;fill-rule:evenodd;stroke-width:0.265203"
       d="m 13.229166,11.90625 h 0.264583 v 0.264583 h -0.264583 z" />
    <path
       id="path1704"
       style="display:inline;fill:#ffffff;fill-rule:evenodd;stroke-width:0.265203"
       d="m 12.964583,11.90625 h 0.264583 v 0.264583 h -0.264583 z" />
    <path
       id="path1705"
       style="display:inline;fill:#ffffff;fill-rule:evenodd;stroke-width:0.265203"
       d="m 16.404166,11.90625 h 0.264583 v 0.264583 h -0.264583 z" />
    <path
       id="path1706"
       style="display:inline;fill:#ffffff;fill-rule:evenodd;stroke-width:0.265203"
       d="m 16.404166,11.1125 h 0.264583 v 0.264583 h -0.264583 z" />
    <path
       id="path1707"
       style="display:inline;fill:#ffffff;fill-rule:evenodd;stroke-width:0.265203"
       d="m 12.964583,11.1125 h 0.264583 v 0.264583 h -0.264583 z" />
    <path
       id="path1708"
       style="display:inline;fill:#ffffff;fill-rule:evenodd;stroke-width:0.265203"
       d="m 12.964583,10.847917 h 0.264583 V 11.1125 h -0.264583 z" />
    <path
       id="path1711"
       style="display:inline;fill:#ffffff;fill-rule:evenodd;stroke-width:0.265203"
       d="m 13.758333,10.847917 h 0.264583 V 11.1125 h -0.264583 z" />
    <path
       id="path1712"
       style="display:inline;fill:#ffffff;fill-rule:evenodd;stroke-width:0.265203"
       d="m 14.022916,10.847917 h 0.264583 V 11.1125 h -0.264583 z" />
    <path
       id="path1713"
       style="display:inline;fill:#ffffff;fill-rule:evenodd;stroke-width:0.265203"
       d="m 14.2875,10.847917 h 0.264583 V 11.1125 H 14.2875 Z" />
    <path
       id="path1714"
       style="display:inline;fill:#ffffff;fill-rule:evenodd;stroke-width:0.265203"
       d="m 14.552083,10.847917 h 0.264583 V 11.1125 h -0.264583 z" />
    <path
       id="path1715"
       style="display:inline;fill:#ffffff;fill-rule:evenodd;stroke-width:0.265203"
       d="m 14.816666,10.847917 h 0.264583 V 11.1125 h -0.264583 z" />
    <path
       id="path1716"
       style="display:inline;fill:#ffffff;fill-rule:evenodd;stroke-width:0.265203"
       d="m 15.08125,10.847917 h 0.264583 V 11.1125 H 15.08125 Z" />
    <path
       id="path1717"
       style="display:inline;fill:#ffffff;fill-rule:evenodd;stroke-width:0.265203"
       d="m 15.345833,10.847917 h 0.264583 V 11.1125 h -0.264583 z" />
    <path
       id="path1718"
       style="display:inline;fill:#ffffff;fill-rule:evenodd;stroke-width:0.265203"
       d="m 15.610416,10.847917 h 0.264583 V 11.1125 h -0.264583 z" />
    <path
       id="path1721"
       style="display:inline;fill:#ffffff;fill-rule:evenodd;stroke-width:0.265203"
       d="m 16.404166,10.847917 h 0.264583 V 11.1125 h -0.264583 z" />
    <path
       id="path1722"
       style="display:inline;fill:#ffffff;fill-rule:evenodd;stroke-width:0.265203"
       d="m 16.404166,10.583333 h 0.264583 v 0.264583 h -0.264583 z" />
    <path
       id="path1725"
       style="display:inline;fill:#ffffff;fill-rule:evenodd;stroke-width:0.265203"
       d="m 15.610416,10.583333 h 0.264583 v 0.264583 h -0.264583 z" />
    <path
       id="path1726"
       style="display:inline;fill:#ffffff;fill-rule:evenodd;stroke-width:0.265203"
       d="m 15.345833,10.583333 h 0.264583 v 0.264583 h -0.264583 z" />
    <path
       id="path1727"
       style="display:inline;fill:#ffffff;fill-rule:evenodd;stroke-width:0.265203"
       d="m 15.08125,10.583333 h 0.264583 v 0.264583 H 15.08125 Z" />
    <path
       id="path1728"
       style="display:inline;fill:#ffffff;fill-rule:evenodd;stroke-width:0.265203"
       d="m 14.816666,10.583333 h 0.264583 v 0.264583 h -0.264583 z" />
    <path
       id="path1729"
       style="display:inline;fill:#ffffff;fill-rule:evenodd;stroke-width:0.265203"
       d="m 14.552083,10.583333 h 0.264583 v 0.264583 h -0.264583 z" />
    <path
       id="path1730"
       style="display:inline;fill:#ffffff;fill-rule:evenodd;stroke-width:0.265203"
       d="m 14.2875,10.583333 h 0.264583 v 0.264583 H 14.2875 Z" />
    <path
       id="path1731"
       style="display:inline;fill:#ffffff;fill-rule:evenodd;stroke-width:0.265203"
       d="m 14.022916,10.583333 h 0.264583 v 0.264583 h -0.264583 z" />
    <path
       id="path1732"
       style="display:inline;fill:#ffffff;fill-rule:evenodd;stroke-width:0.265203"
       d="m 13.758333,10.583333 h 0.264583 v 0.264583 h -0.264583 z" />
    <path
       id="path1735"
       style="display:inline;fill:#ffffff;fill-rule:evenodd;stroke-width:0.265203"
       d="m 12.964583,10.583333 h 0.264583 v 0.264583 h -0.264583 z" />
    <path
       id="path1736"
       style="display:inline;fill:#ffffff;fill-rule:evenodd;stroke-width:0.265203"
       d="m 12.964583,10.31875 h 0.264583 v 0.264583 h -0.264583 z" />
    <path
       id="path1739"
       style="display:inline;fill:#ffffff;fill-rule:evenodd;stroke-width:0.265203"
       d="m 13.758333,10.31875 h 0.264583 v 0.264583 h -0.264583 z" />
    <path
       id="path1740"
       style="display:inline;fill:#ffffff;fill-rule:evenodd;stroke-width:0.265203"
       d="m 14.022916,10.31875 h 0.264583 v 0.264583 h -0.264583 z" />
    <path
       id="path1741"
       style="display:inline;fill:#ffffff;fill-rule:evenodd;stroke-width:0.265203"
       d="m 14.2875,10.31875 h 0.264583 v 0.264583 H 14.2875 Z" />
    <path
       id="path1742"
       style="display:inline;fill:#ffffff;fill-rule:evenodd;stroke-width:0.265203"
       d="m 14.552083,10.31875 h 0.264583 v 0.264583 h -0.264583 z" />
    <path
       id="path1743"
       style="display:inline;fill:#ffffff;fill-rule:evenodd;stroke-width:0.265203"
       d="m 14.816666,10.31875 h 0.264583 v 0.264583 h -0.264583 z" />
    <path
       id="path1744"
       style="display:inline;fill:#ffffff;fill-rule:evenodd;stroke-width:0.265203"
       d="m 15.08125,10.31875 h 0.264583 v 0.264583 H 15.08125 Z" />
    <path
       id="path1745"
       style="display:inline;fill:#ffffff;fill-rule:evenodd;stroke-width:0.265203"
       d="m 15.345833,10.31875 h 0.264583 v 0.264583 h -0.264583 z" />
    <path
       id="path1746"
       style="display:inline;fill:#ffffff;fill-rule:evenodd;stroke-width:0.265203"
       d="m 15.610416,10.31875 h 0.264583 v 0.264583 h -0.264583 z" />
    <path
       id="path1749"
       style="display:inline;fill:#ffffff;fill-rule:evenodd;stroke-width:0.265203"
       d="m 16.404166,10.31875 h 0.264583 v 0.264583 h -0.264583 z" />
    <path
       id="path1750"
       style="display:inline;fill:#ffffff;fill-rule:evenodd;stroke-width:0.265203"
       d="m 16.404166,10.054167 h 0.264583 v 0.264583 h -0.264583 z" />
    <path
       id="path1753"
       style="display:inline;fill:#ffffff;fill-rule:evenodd;stroke-width:0.265203"
       d="m 15.610416,10.054167 h 0.264583 v 0.264583 h -0.264583 z" />
    <path
       id="path1754"
       style="display:inline;fill:#ffffff;fill-rule:evenodd;stroke-width:0.265203"
       d="m 15.345833,10.054167 h 0.264583 v 0.264583 h -0.264583 z" />
    <path
       id="path1755"
       style="display:inline;fill:#ffffff;fill-rule:evenodd;stroke-width:0.265203"
       d="m 15.08125,10.054167 h 0.264583 V 10.31875 H 15.08125 Z" />
    <path
       id="path1756"
       style="display:inline;fill:#ffffff;fill-rule:evenodd;stroke-width:0.265203"
       d="m 14.816666,10.054167 h 0.264583 v 0.264583 h -0.264583 z" />
    <path
       id="path1757"
       style="display:inline;fill:#ffffff;fill-rule:evenodd;stroke-width:0.265203"
       d="m 14.552083,10.054167 h 0.264583 v 0.264583 h -0.264583 z" />
    <path
       id="path1758"
       style="display:inline;fill:#ffffff;fill-rule:evenodd;stroke-width:0.265203"
       d="m 14.2875,10.054167 h 0.264583 V 10.31875 H 14.2875 Z" />
    <path
       id="path1759"
       style="display:inline;fill:#ffffff;fill-rule:evenodd;stroke-width:0.265203"
       d="m 14.022916,10.054167 h 0.264583 v 0.264583 h -0.264583 z" />
    <path
       id="path1760"
       style="display:inline;fill:#ffffff;fill-rule:evenodd;stroke-width:0.265203"
       d="m 13.758333,10.054167 h 0.264583 v 0.264583 h -0.264583 z" />
    <path
       id="path1763"
       style="display:inline;fill:#ffffff;fill-rule:evenodd;stroke-width:0.265203"
       d="m 12.964583,10.054167 h 0.264583 v 0.264583 h -0.264583 z" />
    <path
       id="path1764"
       style="display:inline;fill:#ffffff;fill-rule:evenodd;stroke-width:0.265203"
       d="m 12.964583,9.7895833 h 0.264583 v 0.2645837 h -0.264583 z" />
    <path
       id="path1767"
       style="display:inline;fill:#ffffff;fill-rule:evenodd;stroke-width:0.265203"
       d="m 13.758333,9.7895833 h 0.264583 v 0.2645837 h -0.264583 z" />
    <path
       id="path1768"
       style="display:inline;fill:#ffffff;fill-rule:evenodd;stroke-width:0.265203"
       d="m 14.022916,9.7895833 h 0.264583 v 0.2645837 h -0.264583 z" />
    <path
       id="path1769"
       style="display:inline;fill:#ffffff;fill-rule:evenodd;stroke-width:0.265203"
       d="m 14.2875,9.7895833 h 0.264583 V 10.054167 H 14.2875 Z" />
    <path
       id="path1770"
       style="display:inline;fill:#ffffff;fill-rule:evenodd;stroke-width:0.265203"
       d="m 14.552083,9.7895833 h 0.264583 v 0.2645837 h -0.264583 z" />
    <path
       id="path1771"
       style="display:inline;fill:#ffffff;fill-rule:evenodd;stroke-width:0.265203"
       d="m 14.816666,9.7895833 h 0.264583 v 0.2645837 h -0.264583 z" />
    <path
       id="path1772"
       style="display:inline;fill:#ffffff;fill-rule:evenodd;stroke-width:0.265203"
       d="m 15.08125,9.7895833 h 0.264583 V 10.054167 H 15.08125 Z" />
    <path
       id="path1773"
       style="display:inline;fill:#ffffff;fill-rule:evenodd;stroke-width:0.265203"
       d="m 15.345833,9.7895833 h 0.264583 v 0.2645837 h -0.264583 z" />
    <path
       id="path1774"
       style="display:inline;fill:#ffffff;fill-rule:evenodd;stroke-width:0.265203"
       d="m 15.610416,9.7895833 h 0.264583 v 0.2645837 h -0.264583 z" />
    <path
       id="path1777"
       style="display:inline;fill:#ffffff;fill-rule:evenodd;stroke-width:0.265203"
       d="m 16.404166,9.7895833 h 0.264583 v 0.2645837 h -0.264583 z" />
    <path
       id="path1778"
       style="display:inline;fill:#ffffff;fill-rule:evenodd;stroke-width:0.265203"
       d="m 16.404166,9.525 h 0.264583 v 0.2645833 h -0.264583 z" />
    <path
       id="path1781"
       style="display:inline;fill:#ffffff;fill-rule:evenodd;stroke-width:0.265203"
       d="m 15.610416,9.525 h 0.264583 v 0.2645833 h -0.264583 z" />
    <path
       id="path1782"
       style="display:inline;fill:#ffffff;fill-rule:evenodd;stroke-width:0.265203"
       d="m 15.345833,9.525 h 0.264583 v 0.2645833 h -0.264583 z" />
    <path
       id="path1783"
       style="display:inline;fill:#ffffff;fill-rule:evenodd;stroke-width:0.265203"
       d="m 15.08125,9.525 h 0.264583 V 9.7895833 H 15.08125 Z" />
    <path
       id="path1784"
       style="display:inline;fill:#ffffff;fill-rule:evenodd;stroke-width:0.265203"
       d="m 14.816666,9.525 h 0.264583 v 0.2645833 h -0.264583 z" />
    <path
       id="path1785"
       style="display:inline;fill:#ffffff;fill-rule:evenodd;stroke-width:0.265203"
       d="m 14.552083,9.525 h 0.264583 v 0.2645833 h -0.264583 z" />
    <path
       id="path1786"
       style="display:inline;fill:#ffffff;fill-rule:evenodd;stroke-width:0.265203"
       d="m 14.2875,9.525 h 0.264583 V 9.7895833 H 14.2875 Z" />
    <path
       id="path1787"
       style="display:inline;fill:#ffffff;fill-rule:evenodd;stroke-width:0.265203"
       d="m 14.022916,9.525 h 0.264583 v 0.2645833 h -0.264583 z" />
    <path
       id="path1788"
       style="display:inline;fill:#ffffff;fill-rule:evenodd;stroke-width:0.265203"
       d="m 13.758333,9.525 h 0.264583 v 0.2645833 h -0.264583 z" />
    <path
       id="path1791"
       style="display:inline;fill:#ffffff;fill-rule:evenodd;stroke-width:0.265203"
       d="m 12.964583,9.525 h 0.264583 v 0.2645833 h -0.264583 z" />
    <path
       id="path1792"
       style="display:inline;fill:#ffffff;fill-rule:evenodd;stroke-width:0.265203"
       d="m 12.964583,9.2604166 h 0.264583 v 0.2645833 h -0.264583 z" />
    <path
       id="path1795"
       style="display:inline;fill:#ffffff;fill-rule:evenodd;stroke-width:0.265203"
       d="m 13.758333,9.2604166 h 0.264583 v 0.2645833 h -0.264583 z" />
    <path
       id="path1796"
       style="display:inline;fill:#ffffff;fill-rule:evenodd;stroke-width:0.265203"
       d="m 14.022916,9.2604166 h 0.264583 v 0.2645833 h -0.264583 z" />
    <path
       id="path1797"
       style="display:inline;fill:#ffffff;fill-rule:evenodd;stroke-width:0.265203"
       d="m 14.2875,9.2604166 h 0.264583 V 9.5249999 H 14.2875 Z" />
    <path
       id="path1798"
       style="display:inline;fill:#ffffff;fill-rule:evenodd;stroke-width:0.265203"
       d="m 14.552083,9.2604166 h 0.264583 v 0.2645833 h -0.264583 z" />
    <path
       id="path1799"
       style="display:inline;fill:#ffffff;fill-rule:evenodd;stroke-width:0.265203"
       d="m 14.816666,9.2604166 h 0.264583 v 0.2645833 h -0.264583 z" />
    <path
       id="path1800"
       style="display:inline;fill:#ffffff;fill-rule:evenodd;stroke-width:0.265203"
       d="m 15.08125,9.2604166 h 0.264583 V 9.5249999 H 15.08125 Z" />
    <path
       id="path1801"
       style="display:inline;fill:#ffffff;fill-rule:evenodd;stroke-width:0.265203"
       d="m 15.345833,9.2604166 h 0.264583 v 0.2645833 h -0.264583 z" />
    <path
       id="path1802"
       style="display:inline;fill:#ffffff;fill-rule:evenodd;stroke-width:0.265203"
       d="m 15.610416,9.2604166 h 0.264583 v 0.2645833 h -0.264583 z" />
    <path
       id="path1805"
       style="display:inline;fill:#ffffff;fill-rule:evenodd;stroke-width:0.265203"
       d="m 16.404166,9.2604166 h 0.264583 v 0.2645833 h -0.264583 z" />
    <path
       id="path1806"
       style="display:inline;fill:#ffffff;fill-rule:evenodd;stroke-width:0.265203"
       d="m 16.404166,8.9958333 h 0.264583 v 0.2645833 h -0.264583 z" />
    <path
       id="path1819"
       style="display:inline;fill:#ffffff;fill-rule:evenodd;stroke-width:0.265203"
       d="m 12.964583,8.9958333 h 0.264583 v 0.2645833 h -0.264583 z" />
    <path
       id="path1820"
       style="display:inline;fill:#ffffff;fill-rule:evenodd;stroke-width:0.265203"
       d="m 12.964583,8.73125 h 0.264583 v 0.2645833 h -0.264583 z" />
    <path
       id="path1833"
       style="display:inline;fill:#ffffff;fill-rule:evenodd;stroke-width:0.265203"
       d="m 16.404166,8.73125 h 0.264583 v 0.2645833 h -0.264583 z" />
    <path
       id="path1834"
       style="display:inline;fill:#ffffff;fill-rule:evenodd;stroke-width:0.265203"
       d="m 16.404166,8.4666666 h 0.264583 v 0.2645833 h -0.264583 z" />
    <path
       id="path1835"
       style="display:inline;fill:#ffffff;fill-rule:evenodd;stroke-width:0.265203"
       d="m 16.139583,8.4666666 h 0.264583 v 0.2645833 h -0.264583 z" />
    <path
       id="path1836"
       style="display:inline;fill:#ffffff;fill-rule:evenodd;stroke-width:0.265203"
       d="m 15.875,8.4666666 h 0.264583 V 8.7312499 H 15.875 Z" />
    <path
       id="path1837"
       style="display:inline;fill:#ffffff;fill-rule:evenodd;stroke-width:0.265203"
       d="m 15.610416,8.4666666 h 0.264583 v 0.2645833 h -0.264583 z" />
    <path
       id="path1838"
       style="display:inline;fill:#ffffff;fill-rule:evenodd;stroke-width:0.265203"
       d="m 15.345833,8.4666666 h 0.264583 v 0.2645833 h -0.264583 z" />
    <path
       id="path1839"
       style="display:inline;fill:#ffffff;fill-rule:evenodd;stroke-width:0.265203"
       d="m 15.08125,8.4666666 h 0.264583 V 8.7312499 H 15.08125 Z" />
    <path
       id="path1840"
       style="display:inline;fill:#ffffff;fill-rule:evenodd;stroke-width:0.265203"
       d="m 14.816666,8.4666666 h 0.264583 v 0.2645833 h -0.264583 z" />
    <path
       id="path1841"
       style="display:inline;fill:#ffffff;fill-rule:evenodd;stroke-width:0.265203"
       d="m 14.552083,8.4666666 h 0.264583 v 0.2645833 h -0.264583 z" />
    <path
       id="path1842"
       style="display:inline;fill:#ffffff;fill-rule:evenodd;stroke-width:0.265203"
       d="m 14.2875,8.4666666 h 0.264583 V 8.7312499 H 14.2875 Z" />
    <path
       id="path1843"
       style="display:inline;fill:#ffffff;fill-rule:evenodd;stroke-width:0.265203"
       d="m 14.022916,8.4666666 h 0.264583 v 0.2645833 h -0.264583 z" />
    <path
       id="path1844"
       style="display:inline;fill:#ffffff;fill-rule:evenodd;stroke-width:0.265203"
       d="m 13.758333,8.4666666 h 0.264583 v 0.2645833 h -0.264583 z" />
    <path
       id="path1845"
       style="display:inline;fill:#ffffff;fill-rule:evenodd;stroke-width:0.265203"
       d="m 13.49375,8.4666666 h 0.264583 V 8.7312499 H 13.49375 Z" />
    <path
       id="path1846"
       style="display:inline;fill:#ffffff;fill-rule:evenodd;stroke-width:0.265203"
       d="m 13.229166,8.4666666 h 0.264583 v 0.2645833 h -0.264583 z" />
    <path
       id="path1847"
       style="display:inline;fill:#ffffff;fill-rule:evenodd;stroke-width:0.265203"
       d="m 12.964583,8.4666666 h 0.264583 v 0.2645833 h -0.264583 z" />
  </g>
</svg>
