<?xml version="1.0" encoding="UTF-8" standalone="no"?>
<!-- Created with Inkscape (http://www.inkscape.org/) -->

<svg
   width="16"
   height="16"
   viewBox="0 0 4.2333333 4.2333333"
   version="1.1"
   id="svg1"
   inkscape:version="1.3.2 (091e20ef0f, 2023-11-25)"
   sodipodi:docname="close-symbolic.svg"
   xmlns:inkscape="http://www.inkscape.org/namespaces/inkscape"
   xmlns:sodipodi="http://sodipodi.sourceforge.net/DTD/sodipodi-0.dtd"
   xmlns="http://www.w3.org/2000/svg"
   xmlns:svg="http://www.w3.org/2000/svg">
  <sodipodi:namedview
     id="namedview1"
     pagecolor="#00f32e"
     bordercolor="#000000"
     borderopacity="0.25"
     inkscape:showpageshadow="2"
     inkscape:pageopacity="0.0"
     inkscape:pagecheckerboard="0"
     inkscape:deskcolor="#d1d1d1"
     inkscape:document-units="px"
     showgrid="true"
     inkscape:zoom="32"
     inkscape:cx="5.859375"
     inkscape:cy="12.40625"
     inkscape:window-width="1390"
     inkscape:window-height="1392"
     inkscape:window-x="0"
     inkscape:window-y="0"
     inkscape:window-maximized="0"
     inkscape:current-layer="g2079">
    <inkscape:grid
       id="grid1"
       units="px"
       originx="0"
       originy="0"
       spacingx="0.26458333"
       spacingy="0.26458333"
       empcolor="#0099e5"
       empopacity="0.30196078"
       color="#0099e5"
       opacity="0.14901961"
       empspacing="1"
       dotted="false"
       gridanglex="30"
       gridanglez="30"
       visible="true" />
    <sodipodi:guide
       position="0,42.333333"
       orientation="0,128"
       id="guide1"
       inkscape:locked="false" />
    <sodipodi:guide
       position="33.866666,42.333333"
       orientation="160,0"
       id="guide2"
       inkscape:locked="false" />
    <sodipodi:guide
       position="33.866666,0"
       orientation="0,-128"
       id="guide3"
       inkscape:locked="false" />
    <sodipodi:guide
       position="0,0"
       orientation="-160,0"
       id="guide4"
       inkscape:locked="false" />
  </sodipodi:namedview>
  <defs
     id="defs1" />
  <g
     inkscape:label="Layer 1"
     inkscape:groupmode="layer"
     id="layer1"
     style="display:inline" />
  <g
     inkscape:groupmode="layer"
     id="g2079"
     inkscape:label="close-symbolic"
     transform="translate(-12.7,-8.2020833)">
    <path
       id="path1848"
       style="display:inline;fill:#ffffff;fill-rule:evenodd;stroke-width:0.265203"
       d="m 12.7,8.2020833 h 0.264583 V 8.4666666 H 12.7 Z" />
    <path
       id="path1849"
       style="display:inline;fill:#ffffff;fill-rule:evenodd;stroke-width:0.265203"
       d="m 12.964583,8.2020833 h 0.264583 v 0.2645833 h -0.264583 z" />
    <path
       id="path1850"
       style="display:inline;fill:#ffffff;fill-rule:evenodd;stroke-width:0.265203"
       d="m 13.229166,8.2020833 h 0.264583 v 0.2645833 h -0.264583 z" />
    <path
       id="path1851"
       style="display:inline;fill:#ffffff;fill-rule:evenodd;stroke-width:0.265203"
       d="m 13.49375,8.2020833 h 0.264583 V 8.4666666 H 13.49375 Z" />
    <path
       id="path1852"
       style="display:inline;fill:#ffffff;fill-rule:evenodd;stroke-width:0.265203"
       d="m 13.758333,8.2020833 h 0.264583 v 0.2645833 h -0.264583 z" />
    <path
       id="path1853"
       style="display:inline;fill:#ffffff;fill-rule:evenodd;stroke-width:0.265203"
       d="m 14.022916,8.2020833 h 0.264583 v 0.2645833 h -0.264583 z" />
    <path
       id="path1854"
       style="display:inline;fill:#ffffff;fill-rule:evenodd;stroke-width:0.265203"
       d="m 14.2875,8.2020833 h 0.264583 V 8.4666666 H 14.2875 Z" />
    <path
       id="path1855"
       style="display:inline;fill:#ffffff;fill-rule:evenodd;stroke-width:0.265203"
       d="m 14.552083,8.2020833 h 0.264583 v 0.2645833 h -0.264583 z" />
    <path
       id="path1856"
       style="display:inline;fill:#ffffff;fill-rule:evenodd;stroke-width:0.265203"
       d="m 14.816666,8.2020833 h 0.264583 v 0.2645833 h -0.264583 z" />
    <path
       id="path1857"
       style="display:inline;fill:#ffffff;fill-rule:evenodd;stroke-width:0.265203"
       d="m 15.08125,8.2020833 h 0.264583 V 8.4666666 H 15.08125 Z" />
    <path
       id="path1858"
       style="display:inline;fill:#ffffff;fill-rule:evenodd;stroke-width:0.265203"
       d="m 15.345833,8.2020833 h 0.264583 v 0.2645833 h -0.264583 z" />
    <path
       id="path1859"
       style="display:inline;fill:#ffffff;fill-rule:evenodd;stroke-width:0.265203"
       d="m 15.610416,8.2020833 h 0.264583 v 0.2645833 h -0.264583 z" />
    <path
       id="path1860"
       style="display:inline;fill:#ffffff;fill-rule:evenodd;stroke-width:0.265203"
       d="m 15.875,8.2020833 h 0.264583 V 8.4666666 H 15.875 Z" />
    <path
       id="path1861"
       style="display:inline;fill:#ffffff;fill-rule:evenodd;stroke-width:0.265203"
       d="m 16.139583,8.2020833 h 0.264583 v 0.2645833 h -0.264583 z" />
    <path
       id="path1862"
       style="display:inline;fill:#ffffff;fill-rule:evenodd;stroke-width:0.265203"
       d="m 16.404166,8.2020833 h 0.264583 v 0.2645833 h -0.264583 z" />
    <path
       id="path1863"
       style="display:inline;fill:#ffffff;fill-rule:evenodd;stroke-width:0.265203"
       d="m 16.66875,8.2020833 h 0.264583 V 8.4666666 H 16.66875 Z" />
    <path
       id="path1864"
       style="display:inline;fill:#ffffff;fill-rule:evenodd;stroke-width:0.265203"
       d="m 12.7,8.4666666 h 0.264583 V 8.7312499 H 12.7 Z" />
    <path
       id="path1865"
       style="display:inline;fill:#ffffff;fill-rule:evenodd;stroke-width:0.265203"
       d="m 12.7,8.7306322 h 0.264583 V 8.9952156 H 12.7 Z" />
    <path
       id="path1866"
       style="display:inline;fill:#ffffff;fill-rule:evenodd;stroke-width:0.265203"
       d="m 12.7,8.9958333 h 0.264583 V 9.2604166 H 12.7 Z" />
    <path
       id="path1867"
       style="display:inline;fill:#ffffff;fill-rule:evenodd;stroke-width:0.265203"
       d="m 12.7,9.2604166 h 0.264583 V 9.5249999 H 12.7 Z" />
    <path
       id="path1868"
       style="display:inline;fill:#ffffff;fill-rule:evenodd;stroke-width:0.265203"
       d="m 12.7,9.525 h 0.264583 V 9.7895833 H 12.7 Z" />
    <path
       id="path1869"
       style="display:inline;fill:#ffffff;fill-rule:evenodd;stroke-width:0.265203"
       d="m 12.7,9.7895833 h 0.264583 V 10.054167 H 12.7 Z" />
    <path
       id="path1870"
       style="display:inline;fill:#ffffff;fill-rule:evenodd;stroke-width:0.265203"
       d="m 12.7,10.054167 h 0.264583 V 10.31875 H 12.7 Z" />
    <path
       id="path1871"
       style="display:inline;fill:#ffffff;fill-rule:evenodd;stroke-width:0.265203"
       d="m 12.7,10.31875 h 0.264583 v 0.264583 H 12.7 Z" />
    <path
       id="path1872"
       style="display:inline;fill:#ffffff;fill-rule:evenodd;stroke-width:0.265203"
       d="m 12.7,10.583333 h 0.264583 v 0.264583 H 12.7 Z" />
    <path
       id="path1873"
       style="display:inline;fill:#ffffff;fill-rule:evenodd;stroke-width:0.265203"
       d="m 12.7,10.847917 h 0.264583 V 11.1125 H 12.7 Z" />
    <path
       id="path1874"
       style="display:inline;fill:#ffffff;fill-rule:evenodd;stroke-width:0.265203"
       d="m 12.7,11.1125 h 0.264583 v 0.264583 H 12.7 Z" />
    <path
       id="path1875"
       style="display:inline;fill:#ffffff;fill-rule:evenodd;stroke-width:0.265203"
       d="m 12.7,11.377083 h 0.264583 v 0.264583 H 12.7 Z" />
    <path
       id="path1876"
       style="display:inline;fill:#ffffff;fill-rule:evenodd;stroke-width:0.265203"
       d="m 12.7,11.641667 h 0.264583 V 11.90625 H 12.7 Z" />
    <path
       id="path1877"
       style="display:inline;fill:#ffffff;fill-rule:evenodd;stroke-width:0.265203"
       d="m 12.7,11.90625 h 0.264583 v 0.264583 H 12.7 Z" />
    <path
       id="path1878"
       style="display:inline;fill:#ffffff;fill-rule:evenodd;stroke-width:0.265203"
       d="m 12.7,12.170833 h 0.264583 v 0.264583 H 12.7 Z" />
    <path
       id="path1879"
       style="display:inline;fill:#ffffff;fill-rule:evenodd;stroke-width:0.265203"
       d="m 16.66875,8.4666666 h 0.264583 V 8.7312499 H 16.66875 Z" />
    <path
       id="path1880"
       style="display:inline;fill:#ffffff;fill-rule:evenodd;stroke-width:0.265203"
       d="m 16.66875,8.7306322 h 0.264583 V 8.9952156 H 16.66875 Z" />
    <path
       id="path1881"
       style="display:inline;fill:#ffffff;fill-rule:evenodd;stroke-width:0.265203"
       d="m 16.66875,8.9958333 h 0.264583 V 9.2604166 H 16.66875 Z" />
    <path
       id="path1882"
       style="display:inline;fill:#ffffff;fill-rule:evenodd;stroke-width:0.265203"
       d="m 16.66875,9.2604166 h 0.264583 V 9.5249999 H 16.66875 Z" />
    <path
       id="path1883"
       style="display:inline;fill:#ffffff;fill-rule:evenodd;stroke-width:0.265203"
       d="m 16.66875,9.525 h 0.264583 V 9.7895833 H 16.66875 Z" />
    <path
       id="path1884"
       style="display:inline;fill:#ffffff;fill-rule:evenodd;stroke-width:0.265203"
       d="m 16.66875,9.7895833 h 0.264583 V 10.054167 H 16.66875 Z" />
    <path
       id="path1885"
       style="display:inline;fill:#ffffff;fill-rule:evenodd;stroke-width:0.265203"
       d="m 16.66875,10.054167 h 0.264583 V 10.31875 H 16.66875 Z" />
    <path
       id="path1886"
       style="display:inline;fill:#ffffff;fill-rule:evenodd;stroke-width:0.265203"
       d="m 16.66875,10.31875 h 0.264583 v 0.264583 H 16.66875 Z" />
    <path
       id="path1887"
       style="display:inline;fill:#ffffff;fill-rule:evenodd;stroke-width:0.265203"
       d="m 16.66875,10.583333 h 0.264583 v 0.264583 H 16.66875 Z" />
    <path
       id="path1888"
       style="display:inline;fill:#ffffff;fill-rule:evenodd;stroke-width:0.265203"
       d="m 16.66875,10.847917 h 0.264583 V 11.1125 H 16.66875 Z" />
    <path
       id="path1889"
       style="display:inline;fill:#ffffff;fill-rule:evenodd;stroke-width:0.265203"
       d="m 16.66875,11.1125 h 0.264583 v 0.264583 H 16.66875 Z" />
    <path
       id="path1890"
       style="display:inline;fill:#ffffff;fill-rule:evenodd;stroke-width:0.265203"
       d="m 16.66875,11.377083 h 0.264583 v 0.264583 H 16.66875 Z" />
    <path
       id="path1891"
       style="display:inline;fill:#ffffff;fill-rule:evenodd;stroke-width:0.265203"
       d="m 16.66875,11.641667 h 0.264583 V 11.90625 H 16.66875 Z" />
    <path
       id="path1892"
       style="display:inline;fill:#ffffff;fill-rule:evenodd;stroke-width:0.265203"
       d="m 16.66875,11.90625 h 0.264583 v 0.264583 H 16.66875 Z" />
    <path
       id="path1893"
       style="display:inline;fill:#ffffff;fill-rule:evenodd;stroke-width:0.265203"
       d="m 16.66875,12.170833 h 0.264583 v 0.264583 H 16.66875 Z" />
    <path
       id="path1894"
       style="display:inline;fill:#ffffff;fill-rule:evenodd;stroke-width:0.265203"
       d="m 16.404166,12.170833 h 0.264583 v 0.264583 h -0.264583 z" />
    <path
       id="path1895"
       style="display:inline;fill:#ffffff;fill-rule:evenodd;stroke-width:0.265203"
       d="m 16.139583,12.170833 h 0.264583 v 0.264583 h -0.264583 z" />
    <path
       id="path1896"
       style="display:inline;fill:#ffffff;fill-rule:evenodd;stroke-width:0.265203"
       d="m 15.875,12.170833 h 0.264583 v 0.264583 H 15.875 Z" />
    <path
       id="path1897"
       style="display:inline;fill:#ffffff;fill-rule:evenodd;stroke-width:0.265203"
       d="m 15.610416,12.170833 h 0.264583 v 0.264583 h -0.264583 z" />
    <path
       id="path1898"
       style="display:inline;fill:#ffffff;fill-rule:evenodd;stroke-width:0.265203"
       d="m 15.345833,12.170833 h 0.264583 v 0.264583 h -0.264583 z" />
    <path
       id="path1899"
       style="display:inline;fill:#ffffff;fill-rule:evenodd;stroke-width:0.265203"
       d="m 15.08125,12.170833 h 0.264583 v 0.264583 H 15.08125 Z" />
    <path
       id="path1900"
       style="display:inline;fill:#ffffff;fill-rule:evenodd;stroke-width:0.265203"
       d="m 14.816666,12.170833 h 0.264583 v 0.264583 h -0.264583 z" />
    <path
       id="path1901"
       style="display:inline;fill:#ffffff;fill-rule:evenodd;stroke-width:0.265203"
       d="m 14.552083,12.170833 h 0.264583 v 0.264583 h -0.264583 z" />
    <path
       id="path1902"
       style="display:inline;fill:#ffffff;fill-rule:evenodd;stroke-width:0.265203"
       d="m 14.2875,12.170833 h 0.264583 v 0.264583 H 14.2875 Z" />
    <path
       id="path1903"
       style="display:inline;fill:#ffffff;fill-rule:evenodd;stroke-width:0.265203"
       d="m 14.022916,12.170833 h 0.264583 v 0.264583 h -0.264583 z" />
    <path
       id="path1904"
       style="display:inline;fill:#ffffff;fill-rule:evenodd;stroke-width:0.265203"
       d="m 13.758333,12.170833 h 0.264583 v 0.264583 h -0.264583 z" />
    <path
       id="path1905"
       style="display:inline;fill:#ffffff;fill-rule:evenodd;stroke-width:0.265203"
       d="m 13.49375,12.170833 h 0.264583 v 0.264583 H 13.49375 Z" />
    <path
       id="path1906"
       style="display:inline;fill:#ffffff;fill-rule:evenodd;stroke-width:0.265203"
       d="m 13.229166,12.170833 h 0.264583 v 0.264583 h -0.264583 z" />
    <path
       id="path1907"
       style="display:inline;fill:#ffffff;fill-rule:evenodd;stroke-width:0.265203"
       d="m 12.964583,12.170833 h 0.264583 v 0.264583 h -0.264583 z" />
    <path
       id="path1908"
       style="display:inline;fill:#ffffff;fill-rule:evenodd;stroke-width:0.265203"
       d="m 12.964583,11.641667 h 0.264583 v 0.264583 h -0.264583 z" />
    <path
       id="path1909"
       style="display:inline;fill:#ffffff;fill-rule:evenodd;stroke-width:0.265203"
       d="m 12.964583,11.377083 h 0.264583 v 0.264583 h -0.264583 z" />
    <path
       id="path1910"
       style="display:inline;fill:#ffffff;fill-rule:evenodd;stroke-width:0.265203"
       d="m 13.229166,11.1125 h 0.264583 v 0.264583 h -0.264583 z" />
    <path
       id="path1914"
       style="display:inline;fill:#ffffff;fill-rule:evenodd;stroke-width:0.265203"
       d="m 14.2875,11.1125 h 0.264583 v 0.264583 H 14.2875 Z" />
    <path
       id="path1915"
       style="display:inline;fill:#ffffff;fill-rule:evenodd;stroke-width:0.265203"
       d="m 14.552083,11.1125 h 0.264583 v 0.264583 h -0.264583 z" />
    <path
       id="path1916"
       style="display:inline;fill:#ffffff;fill-rule:evenodd;stroke-width:0.265203"
       d="m 14.816666,11.1125 h 0.264583 v 0.264583 h -0.264583 z" />
    <path
       id="path1917"
       style="display:inline;fill:#ffffff;fill-rule:evenodd;stroke-width:0.265203"
       d="m 15.08125,11.1125 h 0.264583 v 0.264583 H 15.08125 Z" />
    <path
       id="path1921"
       style="display:inline;fill:#ffffff;fill-rule:evenodd;stroke-width:0.265203"
       d="m 16.139583,11.1125 h 0.264583 v 0.264583 h -0.264583 z" />
    <path
       id="path1922"
       style="display:inline;fill:#ffffff;fill-rule:evenodd;stroke-width:0.265203"
       d="m 16.404166,11.377083 h 0.264583 v 0.264583 h -0.264583 z" />
    <path
       id="path1923"
       style="display:inline;fill:#ffffff;fill-rule:evenodd;stroke-width:0.265203"
       d="m 16.404166,11.641667 h 0.264583 v 0.264583 h -0.264583 z" />
    <path
       id="path1924"
       style="display:inline;fill:#ffffff;fill-rule:evenodd;stroke-width:0.265203"
       d="m 16.139583,11.90625 h 0.264583 v 0.264583 h -0.264583 z" />
    <path
       id="path1925"
       style="display:inline;fill:#ffffff;fill-rule:evenodd;stroke-width:0.265203"
       d="m 15.875,11.90625 h 0.264583 v 0.264583 H 15.875 Z" />
    <path
       id="path1926"
       style="display:inline;fill:#ffffff;fill-rule:evenodd;stroke-width:0.265203"
       d="m 15.610416,11.90625 h 0.264583 v 0.264583 h -0.264583 z" />
    <path
       id="path1927"
       style="display:inline;fill:#ffffff;fill-rule:evenodd;stroke-width:0.265203"
       d="m 15.345833,11.90625 h 0.264583 v 0.264583 h -0.264583 z" />
    <path
       id="path1928"
       style="display:inline;fill:#ffffff;fill-rule:evenodd;stroke-width:0.265203"
       d="m 15.08125,11.90625 h 0.264583 v 0.264583 H 15.08125 Z" />
    <path
       id="path1929"
       style="display:inline;fill:#ffffff;fill-rule:evenodd;stroke-width:0.265203"
       d="m 14.816666,11.90625 h 0.264583 v 0.264583 h -0.264583 z" />
    <path
       id="path1930"
       style="display:inline;fill:#ffffff;fill-rule:evenodd;stroke-width:0.265203"
       d="m 14.552083,11.90625 h 0.264583 v 0.264583 h -0.264583 z" />
    <path
       id="path1931"
       style="display:inline;fill:#ffffff;fill-rule:evenodd;stroke-width:0.265203"
       d="m 14.2875,11.90625 h 0.264583 v 0.264583 H 14.2875 Z" />
    <path
       id="path1932"
       style="display:inline;fill:#ffffff;fill-rule:evenodd;stroke-width:0.265203"
       d="m 14.022916,11.90625 h 0.264583 v 0.264583 h -0.264583 z" />
    <path
       id="path1933"
       style="display:inline;fill:#ffffff;fill-rule:evenodd;stroke-width:0.265203"
       d="m 13.758333,11.90625 h 0.264583 v 0.264583 h -0.264583 z" />
    <path
       id="path1934"
       style="display:inline;fill:#ffffff;fill-rule:evenodd;stroke-width:0.265203"
       d="m 13.49375,11.90625 h 0.264583 v 0.264583 H 13.49375 Z" />
    <path
       id="path1935"
       style="display:inline;fill:#ffffff;fill-rule:evenodd;stroke-width:0.265203"
       d="m 13.229166,11.90625 h 0.264583 v 0.264583 h -0.264583 z" />
    <path
       id="path1936"
       style="display:inline;fill:#ffffff;fill-rule:evenodd;stroke-width:0.265203"
       d="m 12.964583,11.90625 h 0.264583 v 0.264583 h -0.264583 z" />
    <path
       id="path1937"
       style="display:inline;fill:#ffffff;fill-rule:evenodd;stroke-width:0.265203"
       d="m 16.404166,11.90625 h 0.264583 v 0.264583 h -0.264583 z" />
    <path
       id="path1938"
       style="display:inline;fill:#ffffff;fill-rule:evenodd;stroke-width:0.265203"
       d="m 16.404166,11.1125 h 0.264583 v 0.264583 h -0.264583 z" />
    <path
       id="path1939"
       style="display:inline;fill:#ffffff;fill-rule:evenodd;stroke-width:0.265203"
       d="m 12.964583,11.1125 h 0.264583 v 0.264583 h -0.264583 z" />
    <path
       id="path1940"
       style="display:inline;fill:#ffffff;fill-rule:evenodd;stroke-width:0.265203"
       d="m 12.964583,10.847917 h 0.264583 V 11.1125 h -0.264583 z" />
    <path
       id="path1941"
       style="display:inline;fill:#ffffff;fill-rule:evenodd;stroke-width:0.265203"
       d="m 13.229166,10.847917 h 0.264583 V 11.1125 h -0.264583 z" />
    <path
       id="path1942"
       style="display:inline;fill:#ffffff;fill-rule:evenodd;stroke-width:0.265203"
       d="m 13.49375,10.847917 h 0.264583 V 11.1125 H 13.49375 Z" />
    <path
       id="path1946"
       style="display:inline;fill:#ffffff;fill-rule:evenodd;stroke-width:0.265203"
       d="m 14.552083,10.847917 h 0.264583 V 11.1125 h -0.264583 z" />
    <path
       id="path1947"
       style="display:inline;fill:#ffffff;fill-rule:evenodd;stroke-width:0.265203"
       d="m 14.816666,10.847917 h 0.264583 V 11.1125 h -0.264583 z" />
    <path
       id="path1951"
       style="display:inline;fill:#ffffff;fill-rule:evenodd;stroke-width:0.265203"
       d="m 15.875,10.847917 h 0.264583 V 11.1125 H 15.875 Z" />
    <path
       id="path1952"
       style="display:inline;fill:#ffffff;fill-rule:evenodd;stroke-width:0.265203"
       d="m 16.139583,10.847917 h 0.264583 V 11.1125 h -0.264583 z" />
    <path
       id="path1953"
       style="display:inline;fill:#ffffff;fill-rule:evenodd;stroke-width:0.265203"
       d="m 16.404166,10.847917 h 0.264583 V 11.1125 h -0.264583 z" />
    <path
       id="path1954"
       style="display:inline;fill:#ffffff;fill-rule:evenodd;stroke-width:0.265203"
       d="m 16.404166,10.583333 h 0.264583 v 0.264583 h -0.264583 z" />
    <path
       id="path1955"
       style="display:inline;fill:#ffffff;fill-rule:evenodd;stroke-width:0.265203"
       d="m 16.139583,10.583333 h 0.264583 v 0.264583 h -0.264583 z" />
    <path
       id="path1956"
       style="display:inline;fill:#ffffff;fill-rule:evenodd;stroke-width:0.265203"
       d="m 15.875,10.583333 h 0.264583 v 0.264583 H 15.875 Z" />
    <path
       id="path1957"
       style="display:inline;fill:#ffffff;fill-rule:evenodd;stroke-width:0.265203"
       d="m 15.610416,10.583333 h 0.264583 v 0.264583 h -0.264583 z" />
    <path
       id="path1964"
       style="display:inline;fill:#ffffff;fill-rule:evenodd;stroke-width:0.265203"
       d="m 13.758333,10.583333 h 0.264583 v 0.264583 h -0.264583 z" />
    <path
       id="path1965"
       style="display:inline;fill:#ffffff;fill-rule:evenodd;stroke-width:0.265203"
       d="m 13.49375,10.583333 h 0.264583 v 0.264583 H 13.49375 Z" />
    <path
       id="path1966"
       style="display:inline;fill:#ffffff;fill-rule:evenodd;stroke-width:0.265203"
       d="m 13.229166,10.583333 h 0.264583 v 0.264583 h -0.264583 z" />
    <path
       id="path1967"
       style="display:inline;fill:#ffffff;fill-rule:evenodd;stroke-width:0.265203"
       d="m 12.964583,10.583333 h 0.264583 v 0.264583 h -0.264583 z" />
    <path
       id="path1968"
       style="display:inline;fill:#ffffff;fill-rule:evenodd;stroke-width:0.265203"
       d="m 12.964583,10.31875 h 0.264583 v 0.264583 h -0.264583 z" />
    <path
       id="path1969"
       style="display:inline;fill:#ffffff;fill-rule:evenodd;stroke-width:0.265203"
       d="m 13.229166,10.31875 h 0.264583 v 0.264583 h -0.264583 z" />
    <path
       id="path1970"
       style="display:inline;fill:#ffffff;fill-rule:evenodd;stroke-width:0.265203"
       d="m 13.49375,10.31875 h 0.264583 v 0.264583 H 13.49375 Z" />
    <path
       id="path1971"
       style="display:inline;fill:#ffffff;fill-rule:evenodd;stroke-width:0.265203"
       d="m 13.758333,10.31875 h 0.264583 v 0.264583 h -0.264583 z" />
    <path
       id="path1972"
       style="display:inline;fill:#ffffff;fill-rule:evenodd;stroke-width:0.265203"
       d="m 14.022916,10.31875 h 0.264583 v 0.264583 h -0.264583 z" />
    <path
       id="path1977"
       style="display:inline;fill:#ffffff;fill-rule:evenodd;stroke-width:0.265203"
       d="m 15.345833,10.31875 h 0.264583 v 0.264583 h -0.264583 z" />
    <path
       id="path1978"
       style="display:inline;fill:#ffffff;fill-rule:evenodd;stroke-width:0.265203"
       d="m 15.610416,10.31875 h 0.264583 v 0.264583 h -0.264583 z" />
    <path
       id="path1979"
       style="display:inline;fill:#ffffff;fill-rule:evenodd;stroke-width:0.265203"
       d="m 15.875,10.31875 h 0.264583 v 0.264583 H 15.875 Z" />
    <path
       id="path1980"
       style="display:inline;fill:#ffffff;fill-rule:evenodd;stroke-width:0.265203"
       d="m 16.139583,10.31875 h 0.264583 v 0.264583 h -0.264583 z" />
    <path
       id="path1981"
       style="display:inline;fill:#ffffff;fill-rule:evenodd;stroke-width:0.265203"
       d="m 16.404166,10.31875 h 0.264583 v 0.264583 h -0.264583 z" />
    <path
       id="path1982"
       style="display:inline;fill:#ffffff;fill-rule:evenodd;stroke-width:0.265203"
       d="m 16.404166,10.054167 h 0.264583 v 0.264583 h -0.264583 z" />
    <path
       id="path1983"
       style="display:inline;fill:#ffffff;fill-rule:evenodd;stroke-width:0.265203"
       d="m 16.139583,10.054167 h 0.264583 v 0.264583 h -0.264583 z" />
    <path
       id="path1984"
       style="display:inline;fill:#ffffff;fill-rule:evenodd;stroke-width:0.265203"
       d="m 15.875,10.054167 h 0.264583 V 10.31875 H 15.875 Z" />
    <path
       id="path1985"
       style="display:inline;fill:#ffffff;fill-rule:evenodd;stroke-width:0.265203"
       d="m 15.610416,10.054167 h 0.264583 v 0.264583 h -0.264583 z" />
    <path
       id="path1986"
       style="display:inline;fill:#ffffff;fill-rule:evenodd;stroke-width:0.265203"
       d="m 15.345833,10.054167 h 0.264583 v 0.264583 h -0.264583 z" />
    <path
       id="path1991"
       style="display:inline;fill:#ffffff;fill-rule:evenodd;stroke-width:0.265203"
       d="m 14.022916,10.054167 h 0.264583 v 0.264583 h -0.264583 z" />
    <path
       id="path1992"
       style="display:inline;fill:#ffffff;fill-rule:evenodd;stroke-width:0.265203"
       d="m 13.758333,10.054167 h 0.264583 v 0.264583 h -0.264583 z" />
    <path
       id="path1993"
       style="display:inline;fill:#ffffff;fill-rule:evenodd;stroke-width:0.265203"
       d="m 13.49375,10.054167 h 0.264583 V 10.31875 H 13.49375 Z" />
    <path
       id="path1994"
       style="display:inline;fill:#ffffff;fill-rule:evenodd;stroke-width:0.265203"
       d="m 13.229166,10.054167 h 0.264583 v 0.264583 h -0.264583 z" />
    <path
       id="path1995"
       style="display:inline;fill:#ffffff;fill-rule:evenodd;stroke-width:0.265203"
       d="m 12.964583,10.054167 h 0.264583 v 0.264583 h -0.264583 z" />
    <path
       id="path1996"
       style="display:inline;fill:#ffffff;fill-rule:evenodd;stroke-width:0.265203"
       d="m 12.964583,9.7895833 h 0.264583 v 0.2645837 h -0.264583 z" />
    <path
       id="path1997"
       style="display:inline;fill:#ffffff;fill-rule:evenodd;stroke-width:0.265203"
       d="m 13.229166,9.7895833 h 0.264583 v 0.2645837 h -0.264583 z" />
    <path
       id="path1998"
       style="display:inline;fill:#ffffff;fill-rule:evenodd;stroke-width:0.265203"
       d="m 13.49375,9.7895833 h 0.264583 V 10.054167 H 13.49375 Z" />
    <path
       id="path1999"
       style="display:inline;fill:#ffffff;fill-rule:evenodd;stroke-width:0.265203"
       d="m 13.758333,9.7895833 h 0.264583 v 0.2645837 h -0.264583 z" />
    <path
       id="path2006"
       style="display:inline;fill:#ffffff;fill-rule:evenodd;stroke-width:0.265203"
       d="m 15.610416,9.7895833 h 0.264583 v 0.2645837 h -0.264583 z" />
    <path
       id="path2007"
       style="display:inline;fill:#ffffff;fill-rule:evenodd;stroke-width:0.265203"
       d="m 15.875,9.7895833 h 0.264583 V 10.054167 H 15.875 Z" />
    <path
       id="path2008"
       style="display:inline;fill:#ffffff;fill-rule:evenodd;stroke-width:0.265203"
       d="m 16.139583,9.7895833 h 0.264583 v 0.2645837 h -0.264583 z" />
    <path
       id="path2009"
       style="display:inline;fill:#ffffff;fill-rule:evenodd;stroke-width:0.265203"
       d="m 16.404166,9.7895833 h 0.264583 v 0.2645837 h -0.264583 z" />
    <path
       id="path2010"
       style="display:inline;fill:#ffffff;fill-rule:evenodd;stroke-width:0.265203"
       d="m 16.404166,9.525 h 0.264583 v 0.2645833 h -0.264583 z" />
    <path
       id="path2011"
       style="display:inline;fill:#ffffff;fill-rule:evenodd;stroke-width:0.265203"
       d="m 16.139583,9.525 h 0.264583 v 0.2645833 h -0.264583 z" />
    <path
       id="path2012"
       style="display:inline;fill:#ffffff;fill-rule:evenodd;stroke-width:0.265203"
       d="m 15.875,9.525 h 0.264583 V 9.7895833 H 15.875 Z" />
    <path
       id="path2016"
       style="display:inline;fill:#ffffff;fill-rule:evenodd;stroke-width:0.264583"
       d="m 14.816666,9.525 h 0.264583 v 0.2633478 h -0.264583 z" />
    <path
       id="path2017"
       style="display:inline;fill:#ffffff;fill-rule:evenodd;stroke-width:0.264583"
       d="m 14.552083,9.525 h 0.264583 v 0.2633478 h -0.264583 z" />
    <path
       id="path2021"
       style="display:inline;fill:#ffffff;fill-rule:evenodd;stroke-width:0.265203"
       d="m 13.49375,9.525 h 0.264583 V 9.7895833 H 13.49375 Z" />
    <path
       id="path2022"
       style="display:inline;fill:#ffffff;fill-rule:evenodd;stroke-width:0.265203"
       d="m 13.229166,9.525 h 0.264583 v 0.2645833 h -0.264583 z" />
    <path
       id="path2023"
       style="display:inline;fill:#ffffff;fill-rule:evenodd;stroke-width:0.265203"
       d="m 12.964583,9.525 h 0.264583 v 0.2645833 h -0.264583 z" />
    <path
       id="path2024"
       style="display:inline;fill:#ffffff;fill-rule:evenodd;stroke-width:0.265203"
       d="m 12.964583,9.2604166 h 0.264583 v 0.2645833 h -0.264583 z" />
    <path
       id="path2025"
       style="display:inline;fill:#ffffff;fill-rule:evenodd;stroke-width:0.265203"
       d="m 13.229166,9.2604166 h 0.264583 v 0.2645833 h -0.264583 z" />
    <path
       id="path2029"
       style="display:inline;fill:#ffffff;fill-rule:evenodd;stroke-width:0.265203"
       d="m 14.2875,9.2604166 h 0.264583 V 9.5249999 H 14.2875 Z" />
    <path
       id="path2030"
       style="display:inline;fill:#ffffff;fill-rule:evenodd;stroke-width:0.265203"
       d="m 14.552083,9.2604166 h 0.264583 v 0.2645833 h -0.264583 z" />
    <path
       id="path2031"
       style="display:inline;fill:#ffffff;fill-rule:evenodd;stroke-width:0.265203"
       d="m 14.816666,9.2604166 h 0.264583 v 0.2645833 h -0.264583 z" />
    <path
       id="path2032"
       style="display:inline;fill:#ffffff;fill-rule:evenodd;stroke-width:0.265203"
       d="m 15.08125,9.2604166 h 0.264583 V 9.5249999 H 15.08125 Z" />
    <path
       id="path2036"
       style="display:inline;fill:#ffffff;fill-rule:evenodd;stroke-width:0.265203"
       d="m 16.139583,9.2604166 h 0.264583 v 0.2645833 h -0.264583 z" />
    <path
       id="path2037"
       style="display:inline;fill:#ffffff;fill-rule:evenodd;stroke-width:0.265203"
       d="m 16.404166,9.2604166 h 0.264583 v 0.2645833 h -0.264583 z" />
    <path
       id="path2038"
       style="display:inline;fill:#ffffff;fill-rule:evenodd;stroke-width:0.265203"
       d="m 16.404166,8.9958333 h 0.264583 v 0.2645833 h -0.264583 z" />
    <path
       id="path2042"
       style="display:inline;fill:#ffffff;fill-rule:evenodd;stroke-width:0.265203"
       d="m 15.345833,8.9958333 h 0.264583 v 0.2645833 h -0.264583 z" />
    <path
       id="path2043"
       style="display:inline;fill:#ffffff;fill-rule:evenodd;stroke-width:0.265203"
       d="m 15.08125,8.9958333 h 0.264583 V 9.2604166 H 15.08125 Z" />
    <path
       id="path2044"
       style="display:inline;fill:#ffffff;fill-rule:evenodd;stroke-width:0.265203"
       d="m 14.816666,8.9958333 h 0.264583 v 0.2645833 h -0.264583 z" />
    <path
       id="path2045"
       style="display:inline;fill:#ffffff;fill-rule:evenodd;stroke-width:0.265203"
       d="m 14.552083,8.9958333 h 0.264583 v 0.2645833 h -0.264583 z" />
    <path
       id="path2046"
       style="display:inline;fill:#ffffff;fill-rule:evenodd;stroke-width:0.265203"
       d="m 14.2875,8.9958333 h 0.264583 V 9.2604166 H 14.2875 Z" />
    <path
       id="path2047"
       style="display:inline;fill:#ffffff;fill-rule:evenodd;stroke-width:0.265203"
       d="m 14.022916,8.9958333 h 0.264583 v 0.2645833 h -0.264583 z" />
    <path
       id="path2051"
       style="display:inline;fill:#ffffff;fill-rule:evenodd;stroke-width:0.265203"
       d="m 12.964583,8.9958333 h 0.264583 v 0.2645833 h -0.264583 z" />
    <path
       id="path2052"
       style="display:inline;fill:#ffffff;fill-rule:evenodd;stroke-width:0.265203"
       d="m 12.964583,8.7306322 h 0.264583 v 0.2645834 h -0.264583 z" />
    <path
       id="path2055"
       style="display:inline;fill:#ffffff;fill-rule:evenodd;stroke-width:0.265203"
       d="m 13.758333,8.7306322 h 0.264583 v 0.2645834 h -0.264583 z" />
    <path
       id="path2056"
       style="display:inline;fill:#ffffff;fill-rule:evenodd;stroke-width:0.265203"
       d="m 14.022916,8.7306322 h 0.264583 v 0.2645834 h -0.264583 z" />
    <path
       id="path2057"
       style="display:inline;fill:#ffffff;fill-rule:evenodd;stroke-width:0.265203"
       d="m 14.2875,8.7306322 h 0.264583 V 8.9952156 H 14.2875 Z" />
    <path
       id="path2058"
       style="display:inline;fill:#ffffff;fill-rule:evenodd;stroke-width:0.265203"
       d="m 14.552083,8.7306322 h 0.264583 v 0.2645834 h -0.264583 z" />
    <path
       id="path2059"
       style="display:inline;fill:#ffffff;fill-rule:evenodd;stroke-width:0.265203"
       d="m 14.816666,8.7306322 h 0.264583 v 0.2645834 h -0.264583 z" />
    <path
       id="path2060"
       style="display:inline;fill:#ffffff;fill-rule:evenodd;stroke-width:0.265203"
       d="m 15.08125,8.7306322 h 0.264583 V 8.9952156 H 15.08125 Z" />
    <path
       id="path2061"
       style="display:inline;fill:#ffffff;fill-rule:evenodd;stroke-width:0.265203"
       d="m 15.345833,8.7306322 h 0.264583 v 0.2645834 h -0.264583 z" />
    <path
       id="path2062"
       style="display:inline;fill:#ffffff;fill-rule:evenodd;stroke-width:0.265203"
       d="m 15.610416,8.7306322 h 0.264583 v 0.2645834 h -0.264583 z" />
    <path
       id="path2065"
       style="display:inline;fill:#ffffff;fill-rule:evenodd;stroke-width:0.265203"
       d="m 16.404166,8.7306322 h 0.264583 v 0.2645834 h -0.264583 z" />
    <path
       id="path2066"
       style="display:inline;fill:#ffffff;fill-rule:evenodd;stroke-width:0.265203"
       d="m 16.404166,8.4666666 h 0.264583 v 0.2645833 h -0.264583 z" />
    <path
       id="path2067"
       style="display:inline;fill:#ffffff;fill-rule:evenodd;stroke-width:0.265203"
       d="m 16.139583,8.4666666 h 0.264583 v 0.2645833 h -0.264583 z" />
    <path
       id="path2068"
       style="display:inline;fill:#ffffff;fill-rule:evenodd;stroke-width:0.265203"
       d="m 15.875,8.4666666 h 0.264583 V 8.7312499 H 15.875 Z" />
    <path
       id="path2069"
       style="display:inline;fill:#ffffff;fill-rule:evenodd;stroke-width:0.265203"
       d="m 15.610416,8.4666666 h 0.264583 v 0.2645833 h -0.264583 z" />
    <path
       id="path2070"
       style="display:inline;fill:#ffffff;fill-rule:evenodd;stroke-width:0.265203"
       d="m 15.345833,8.4666666 h 0.264583 v 0.2645833 h -0.264583 z" />
    <path
       id="path2071"
       style="display:inline;fill:#ffffff;fill-rule:evenodd;stroke-width:0.265203"
       d="m 15.08125,8.4666666 h 0.264583 V 8.7312499 H 15.08125 Z" />
    <path
       id="path2072"
       style="display:inline;fill:#ffffff;fill-rule:evenodd;stroke-width:0.265203"
       d="m 14.816666,8.4666666 h 0.264583 v 0.2645833 h -0.264583 z" />
    <path
       id="path2073"
       style="display:inline;fill:#ffffff;fill-rule:evenodd;stroke-width:0.265203"
       d="m 14.552083,8.4666666 h 0.264583 v 0.2645833 h -0.264583 z" />
    <path
       id="path2074"
       style="display:inline;fill:#ffffff;fill-rule:evenodd;stroke-width:0.265203"
       d="m 14.2875,8.4666666 h 0.264583 V 8.7312499 H 14.2875 Z" />
    <path
       id="path2075"
       style="display:inline;fill:#ffffff;fill-rule:evenodd;stroke-width:0.265203"
       d="m 14.022916,8.4666666 h 0.264583 v 0.2645833 h -0.264583 z" />
    <path
       id="path2076"
       style="display:inline;fill:#ffffff;fill-rule:evenodd;stroke-width:0.265203"
       d="m 13.758333,8.4666666 h 0.264583 v 0.2645833 h -0.264583 z" />
    <path
       id="path2077"
       style="display:inline;fill:#ffffff;fill-rule:evenodd;stroke-width:0.265203"
       d="m 13.49375,8.4666666 h 0.264583 V 8.7312499 H 13.49375 Z" />
    <path
       id="path2078"
       style="display:inline;fill:#ffffff;fill-rule:evenodd;stroke-width:0.265203"
       d="m 13.229166,8.4666666 h 0.264583 v 0.2645833 h -0.264583 z" />
    <path
       id="path2079"
       style="display:inline;fill:#ffffff;fill-rule:evenodd;stroke-width:0.265203"
       d="m 12.964583,8.4666666 h 0.264583 v 0.2645833 h -0.264583 z" />
    <path
       id="rect1-5-4-808-047"
       style="display:inline;fill:#ffffff;fill-rule:evenodd;stroke-width:0.265203"
       d="m 13.758333,11.641667 h 0.264583 v 0.264583 h -0.264583 z" />
    <path
       id="rect1-5-4-808-1166"
       style="display:inline;fill:#ffffff;fill-rule:evenodd;stroke-width:0.265203"
       d="m 14.022916,11.641667 h 0.264583 v 0.264583 h -0.264583 z" />
    <path
       id="rect1-5-4-808-93"
       style="display:inline;fill:#ffffff;fill-rule:evenodd;stroke-width:0.265203"
       d="m 14.022916,11.377083 h 0.264583 v 0.264583 h -0.264583 z" />
    <path
       id="rect1-5-4-808-243"
       style="display:inline;fill:#ffffff;fill-rule:evenodd;stroke-width:0.265203"
       d="m 14.287499,11.377083 h 0.264583 v 0.264583 h -0.264583 z" />
    <path
       id="rect1-5-4-808-124"
       style="display:inline;fill:#ffffff;fill-rule:evenodd;stroke-width:0.265203"
       d="m 14.287499,11.641667 h 0.264583 v 0.264583 h -0.264583 z" />
    <path
       id="rect1-5-4-808-323"
       style="display:inline;fill:#ffffff;fill-rule:evenodd;stroke-width:0.265203"
       d="m 14.552083,11.641667 h 0.264583 v 0.264583 h -0.264583 z" />
    <path
       id="rect1-5-4-808-801"
       style="display:inline;fill:#ffffff;fill-rule:evenodd;stroke-width:0.265203"
       d="m 14.552083,11.377083 h 0.264583 v 0.264583 h -0.264583 z" />
    <path
       id="rect1-5-4-808-591"
       style="display:inline;fill:#ffffff;fill-rule:evenodd;stroke-width:0.265203"
       d="m 14.816666,11.377083 h 0.264583 v 0.264583 h -0.264583 z" />
    <path
       id="rect1-5-4-808-575"
       style="display:inline;fill:#ffffff;fill-rule:evenodd;stroke-width:0.265203"
       d="m 14.816666,11.641667 h 0.264583 v 0.264583 h -0.264583 z" />
    <path
       id="rect1-5-4-808-2997"
       style="display:inline;fill:#ffffff;fill-rule:evenodd;stroke-width:0.265203"
       d="m 15.081249,11.641667 h 0.264583 v 0.264583 h -0.264583 z" />
    <path
       id="rect1-5-4-808-7692"
       style="display:inline;fill:#ffffff;fill-rule:evenodd;stroke-width:0.265203"
       d="m 15.081249,11.377083 h 0.264583 v 0.264583 h -0.264583 z" />
    <path
       id="rect1-5-4-808-587"
       style="display:inline;fill:#ffffff;fill-rule:evenodd;stroke-width:0.265203"
       d="m 15.345833,11.377083 h 0.264583 v 0.264583 h -0.264583 z" />
    <path
       id="rect1-5-4-808-263"
       style="display:inline;fill:#ffffff;fill-rule:evenodd;stroke-width:0.265203"
       d="m 15.345833,11.641667 h 0.264583 v 0.264583 h -0.264583 z" />
    <path
       id="rect1-5-4-808-5393"
       style="display:inline;fill:#ffffff;fill-rule:evenodd;stroke-width:0.265203"
       d="m 15.610416,11.641667 h 0.264583 v 0.264583 h -0.264583 z" />
  </g>
</svg>
