<?xml version="1.0" encoding="UTF-8"?>
<svg xmlns="http://www.w3.org/2000/svg" xmlns:xlink="http://www.w3.org/1999/xlink" width="16" height="16" viewBox="0 0 16 16">
<path fill-rule="evenodd" fill="rgb(90.196078%, 90.196078%, 90.196078%)" fill-opacity="1" d="M 0 0 L 2 0 L 2 1.992188 L 0 1.992188 Z M 0 0 "/>
<path fill-rule="evenodd" fill="rgb(90.196078%, 90.196078%, 90.196078%)" fill-opacity="1" d="M 0 2 L 2 2 L 2 3.992188 L 0 3.992188 Z M 0 2 "/>
<path fill-rule="evenodd" fill="rgb(90.196078%, 90.196078%, 90.196078%)" fill-opacity="1" d="M 0 4 L 2 4 L 2 5.992188 L 0 5.992188 Z M 0 4 "/>
<path fill-rule="evenodd" fill="rgb(90.196078%, 90.196078%, 90.196078%)" fill-opacity="1" d="M 0 6 L 2 6 L 2 7.992188 L 0 7.992188 Z M 0 6 "/>
<path fill-rule="evenodd" fill="rgb(90.196078%, 90.196078%, 90.196078%)" fill-opacity="1" d="M 0 8 L 2 8 L 2 9.992188 L 0 9.992188 Z M 0 8 "/>
<path fill-rule="evenodd" fill="rgb(90.196078%, 90.196078%, 90.196078%)" fill-opacity="1" d="M 0 10 L 2 10 L 2 11.992188 L 0 11.992188 Z M 0 10 "/>
<path fill-rule="evenodd" fill="rgb(90.196078%, 90.196078%, 90.196078%)" fill-opacity="1" d="M 0 12 L 2 12 L 2 13.992188 L 0 13.992188 Z M 0 12 "/>
<path fill-rule="evenodd" fill="rgb(90.196078%, 90.196078%, 90.196078%)" fill-opacity="1" d="M 0 14 L 2 14 L 2 15.992188 L 0 15.992188 Z M 0 14 "/>
<path fill-rule="evenodd" fill="rgb(90.196078%, 90.196078%, 90.196078%)" fill-opacity="1" d="M 2 0 L 4 0 L 4 1.992188 L 2 1.992188 Z M 2 0 "/>
<path fill-rule="evenodd" fill="rgb(90.196078%, 90.196078%, 90.196078%)" fill-opacity="1" d="M 4 0 L 6 0 L 6 1.992188 L 4 1.992188 Z M 4 0 "/>
<path fill-rule="evenodd" fill="rgb(90.196078%, 90.196078%, 90.196078%)" fill-opacity="1" d="M 6 0 L 8 0 L 8 1.992188 L 6 1.992188 Z M 6 0 "/>
<path fill-rule="evenodd" fill="rgb(90.196078%, 90.196078%, 90.196078%)" fill-opacity="1" d="M 8 0 L 10 0 L 10 1.992188 L 8 1.992188 Z M 8 0 "/>
<path fill-rule="evenodd" fill="rgb(90.196078%, 90.196078%, 90.196078%)" fill-opacity="1" d="M 10 0 L 12 0 L 12 1.992188 L 10 1.992188 Z M 10 0 "/>
<path fill-rule="evenodd" fill="rgb(90.196078%, 90.196078%, 90.196078%)" fill-opacity="1" d="M 12 0 L 14 0 L 14 1.992188 L 12 1.992188 Z M 12 0 "/>
<path fill-rule="evenodd" fill="rgb(90.196078%, 90.196078%, 90.196078%)" fill-opacity="1" d="M 14 0 L 16 0 L 16 1.992188 L 14 1.992188 Z M 14 0 "/>
<path fill-rule="evenodd" fill="rgb(90.196078%, 90.196078%, 90.196078%)" fill-opacity="1" d="M 14 2 L 16 2 L 16 3.992188 L 14 3.992188 Z M 14 2 "/>
<path fill-rule="evenodd" fill="rgb(90.196078%, 90.196078%, 90.196078%)" fill-opacity="1" d="M 14 4 L 16 4 L 16 5.992188 L 14 5.992188 Z M 14 4 "/>
<path fill-rule="evenodd" fill="rgb(90.196078%, 90.196078%, 90.196078%)" fill-opacity="1" d="M 14 6 L 16 6 L 16 7.992188 L 14 7.992188 Z M 14 6 "/>
<path fill-rule="evenodd" fill="rgb(90.196078%, 90.196078%, 90.196078%)" fill-opacity="1" d="M 14 8 L 16 8 L 16 9.992188 L 14 9.992188 Z M 14 8 "/>
<path fill-rule="evenodd" fill="rgb(90.196078%, 90.196078%, 90.196078%)" fill-opacity="1" d="M 14 10 L 16 10 L 16 11.992188 L 14 11.992188 Z M 14 10 "/>
<path fill-rule="evenodd" fill="rgb(90.196078%, 90.196078%, 90.196078%)" fill-opacity="1" d="M 14 12 L 16 12 L 16 13.992188 L 14 13.992188 Z M 14 12 "/>
<path fill-rule="evenodd" fill="rgb(90.196078%, 90.196078%, 90.196078%)" fill-opacity="1" d="M 14 14 L 16 14 L 16 15.992188 L 14 15.992188 Z M 14 14 "/>
<path fill-rule="evenodd" fill="rgb(90.196078%, 90.196078%, 90.196078%)" fill-opacity="1" d="M 12 14 L 14 14 L 14 15.992188 L 12 15.992188 Z M 12 14 "/>
<path fill-rule="evenodd" fill="rgb(90.196078%, 90.196078%, 90.196078%)" fill-opacity="1" d="M 10 14 L 12 14 L 12 15.992188 L 10 15.992188 Z M 10 14 "/>
<path fill-rule="evenodd" fill="rgb(90.196078%, 90.196078%, 90.196078%)" fill-opacity="1" d="M 8 14 L 10 14 L 10 15.992188 L 8 15.992188 Z M 8 14 "/>
<path fill-rule="evenodd" fill="rgb(90.196078%, 90.196078%, 90.196078%)" fill-opacity="1" d="M 6 14 L 8 14 L 8 15.992188 L 6 15.992188 Z M 6 14 "/>
<path fill-rule="evenodd" fill="rgb(90.196078%, 90.196078%, 90.196078%)" fill-opacity="1" d="M 4 14 L 6 14 L 6 15.992188 L 4 15.992188 Z M 4 14 "/>
<path fill-rule="evenodd" fill="rgb(90.196078%, 90.196078%, 90.196078%)" fill-opacity="1" d="M 2 14 L 4 14 L 4 15.992188 L 2 15.992188 Z M 2 14 "/>
</svg>
