<?xml version="1.0" encoding="UTF-8" standalone="no"?>
<!-- Created with Inkscape (http://www.inkscape.org/) -->

<svg
   width="32"
   height="16"
   viewBox="0 0 8.4666666 4.2333333"
   version="1.1"
   id="svg1"
   inkscape:version="1.3.2 (091e20ef0f, 2023-11-25)"
   sodipodi:docname="switch-selected.svg"
   xmlns:inkscape="http://www.inkscape.org/namespaces/inkscape"
   xmlns:sodipodi="http://sodipodi.sourceforge.net/DTD/sodipodi-0.dtd"
   xmlns="http://www.w3.org/2000/svg"
   xmlns:svg="http://www.w3.org/2000/svg">
  <sodipodi:namedview
     id="namedview1"
     pagecolor="#00f32e"
     bordercolor="#000000"
     borderopacity="0.25"
     inkscape:showpageshadow="2"
     inkscape:pageopacity="0.0"
     inkscape:pagecheckerboard="0"
     inkscape:deskcolor="#d1d1d1"
     inkscape:document-units="px"
     showgrid="true"
     inkscape:zoom="11.313709"
     inkscape:cx="30.714949"
     inkscape:cy="22.097086"
     inkscape:window-width="1390"
     inkscape:window-height="1392"
     inkscape:window-x="0"
     inkscape:window-y="0"
     inkscape:window-maximized="0"
     inkscape:current-layer="g475">
    <inkscape:grid
       id="grid1"
       units="px"
       originx="0"
       originy="0"
       spacingx="0.26458333"
       spacingy="0.26458333"
       empcolor="#0099e5"
       empopacity="0.30196078"
       color="#0099e5"
       opacity="0.14901961"
       empspacing="1"
       dotted="false"
       gridanglex="30"
       gridanglez="30"
       visible="true" />
    <sodipodi:guide
       position="0,4.2333335"
       orientation="0,128"
       id="guide1"
       inkscape:locked="false" />
    <sodipodi:guide
       position="33.866666,4.2333335"
       orientation="160,0"
       id="guide2"
       inkscape:locked="false" />
    <sodipodi:guide
       position="33.866666,-38.1"
       orientation="0,-128"
       id="guide3"
       inkscape:locked="false" />
    <sodipodi:guide
       position="0,-38.1"
       orientation="-160,0"
       id="guide4"
       inkscape:locked="false" />
  </sodipodi:namedview>
  <defs
     id="defs1" />
  <g
     inkscape:label="Layer 1"
     inkscape:groupmode="layer"
     id="layer1"
     style="display:inline" />
  <g
     inkscape:groupmode="layer"
     id="g475"
     inkscape:label="switch-selected"
     style="display:inline;fill:#e6e6e6">
    <path
       id="path316"
       style="fill:#e6e6e6;fill-rule:evenodd;stroke-width:0.264583"
       d="M 0,1.8520833 H 0.26458332 V 2.1154312 H 0 Z" />
    <path
       id="path317"
       style="fill:#e6e6e6;fill-rule:evenodd;stroke-width:0.264583"
       d="M 3.175,0.5291667 H 3.4395833 V 0.7925146 H 3.175 Z" />
    <path
       id="path318"
       style="fill:#e6e6e6;fill-rule:evenodd;stroke-width:0.264583"
       d="M 3.4395833,0.5291667 H 3.7041666 V 0.7925146 H 3.4395833 Z" />
    <path
       id="path319"
       style="fill:#e6e6e6;fill-rule:evenodd;stroke-width:0.264583"
       d="M 3.7041667,0.5291667 H 3.96875 V 0.7925146 H 3.7041667 Z" />
    <path
       id="path320"
       style="fill:#e6e6e6;fill-rule:evenodd;stroke-width:0.264583"
       d="M 3.96875,0.5291667 H 4.2333333 V 0.7925146 H 3.96875 Z" />
    <path
       id="path321"
       style="fill:#e6e6e6;fill-rule:evenodd;stroke-width:0.264583"
       d="M 4.2333333,0.5291667 H 4.4979166 V 0.7925146 H 4.2333333 Z" />
    <path
       id="path322"
       style="fill:#e6e6e6;fill-rule:evenodd;stroke-width:0.264583"
       d="M 4.4979167,0.5291667 H 4.7625 V 0.7925146 H 4.4979167 Z" />
    <path
       id="path323"
       style="fill:#e6e6e6;fill-rule:evenodd;stroke-width:0.264583"
       d="M 4.7625,0.5291667 H 5.0270833 V 0.7925146 H 4.7625 Z" />
    <path
       id="path324"
       style="fill:#e6e6e6;fill-rule:evenodd;stroke-width:0.264583"
       d="M 5.0270833,0.5291667 H 5.2916666 V 0.7925146 H 5.0270833 Z" />
    <path
       id="path325"
       style="fill:#e6e6e6;fill-rule:evenodd;stroke-width:0.264583"
       d="M 5.2916667,0.5291667 H 5.55625 V 0.7925146 H 5.2916667 Z" />
    <path
       id="path326"
       style="fill:#e6e6e6;fill-rule:evenodd;stroke-width:0.264583"
       d="M 5.55625,0.5291667 H 5.8208333 V 0.7925146 H 5.55625 Z" />
    <path
       id="path327"
       style="fill:#e6e6e6;fill-rule:evenodd;stroke-width:0.264583"
       d="M 5.8208333,0.5291667 H 6.0854166 V 0.7925146 H 5.8208333 Z" />
    <path
       id="path328"
       style="fill:#e6e6e6;fill-rule:evenodd;stroke-width:0.264583"
       d="M 6.0854167,0.5291667 H 6.35 V 0.7925146 H 6.0854167 Z" />
    <path
       id="path329"
       style="fill:#e6e6e6;fill-rule:evenodd;stroke-width:0.264583"
       d="M 6.6145833,3.4395833 H 6.8791666 V 3.7029312 H 6.6145833 Z" />
    <path
       id="path330"
       style="fill:#e6e6e6;fill-rule:evenodd;stroke-width:0.264583"
       d="M 6.35,3.4395833 H 6.6145833 V 3.7029312 H 6.35 Z" />
    <path
       id="path331"
       style="fill:#e6e6e6;fill-rule:evenodd;stroke-width:0.264583"
       d="M 6.0854167,3.4395833 H 6.35 V 3.7029312 H 6.0854167 Z" />
    <path
       id="path332"
       style="fill:#e6e6e6;fill-rule:evenodd;stroke-width:0.264583"
       d="M 5.8208333,3.4395833 H 6.0854166 V 3.7029312 H 5.8208333 Z" />
    <path
       id="path333"
       style="fill:#e6e6e6;fill-rule:evenodd;stroke-width:0.264583"
       d="M 5.55625,3.4395833 H 5.8208333 V 3.7029312 H 5.55625 Z" />
    <path
       id="path334"
       style="fill:#e6e6e6;fill-rule:evenodd;stroke-width:0.264583"
       d="M 5.2916667,3.4395833 H 5.55625 V 3.7029312 H 5.2916667 Z" />
    <path
       id="path335"
       style="fill:#e6e6e6;fill-rule:evenodd;stroke-width:0.264583"
       d="M 5.0270833,3.4395833 H 5.2916666 V 3.7029312 H 5.0270833 Z" />
    <path
       id="path336"
       style="fill:#e6e6e6;fill-rule:evenodd;stroke-width:0.264583"
       d="M 4.7625,3.4395833 H 5.0270833 V 3.7029312 H 4.7625 Z" />
    <path
       id="path337"
       style="fill:#e6e6e6;fill-rule:evenodd;stroke-width:0.264583"
       d="M 4.4979167,3.4395833 H 4.7625 V 3.7029312 H 4.4979167 Z" />
    <path
       id="path338"
       style="fill:#e6e6e6;fill-rule:evenodd;stroke-width:0.264583"
       d="M 4.2333333,3.4395833 H 4.4979166 V 3.7029312 H 4.2333333 Z" />
    <path
       id="path339"
       style="fill:#e6e6e6;fill-rule:evenodd;stroke-width:0.264583"
       d="M 3.96875,3.4395833 H 4.2333333 V 3.7029312 H 3.96875 Z" />
    <path
       id="path340"
       style="fill:#e6e6e6;fill-rule:evenodd;stroke-width:0.264583"
       d="M 3.7041667,3.4395833 H 3.96875 V 3.7029312 H 3.7041667 Z" />
    <path
       id="path341"
       style="fill:#e6e6e6;fill-rule:evenodd;stroke-width:0.264583"
       d="M 3.4395833,3.4395833 H 3.7041666 V 3.7029312 H 3.4395833 Z" />
    <path
       id="path342"
       style="fill:#e6e6e6;fill-rule:evenodd;stroke-width:0.264583"
       d="M 3.175,3.4395833 H 3.4395833 V 3.7029312 H 3.175 Z" />
    <path
       id="path343"
       style="fill:#e6e6e6;fill-rule:evenodd;stroke-width:0.264583"
       d="M 2.9104167,3.4395833 H 3.175 V 3.7029312 H 2.9104167 Z" />
    <path
       id="path344"
       style="fill:#e6e6e6;fill-rule:evenodd;stroke-width:0.264583"
       d="M 2.6458333,3.4395833 H 2.9104166 V 3.7029312 H 2.6458333 Z" />
    <path
       id="path345"
       style="fill:#e6e6e6;fill-rule:evenodd;stroke-width:0.264583"
       d="M 2.38125,3.4395833 H 2.6458333 V 3.7029312 H 2.38125 Z" />
    <path
       id="path346"
       style="fill:#e6e6e6;fill-rule:evenodd;stroke-width:0.264583"
       d="M 0,2.1166666 H 0.26458332 V 2.3800144 H 0 Z" />
    <path
       id="path347"
       style="fill:#e6e6e6;fill-rule:evenodd;stroke-width:0.264583"
       d="M 0,1.5875 H 0.26458332 V 1.8508479 H 0 Z" />
    <path
       id="path348"
       style="fill:#e6e6e6;fill-rule:evenodd;stroke-width:0.264583"
       d="M 0,2.3812499 H 0.26458332 V 2.6445978 H 0 Z" />
    <path
       id="path349"
       style="fill:#e6e6e6;fill-rule:evenodd;stroke-width:0.264583"
       d="M 0.26458332,1.3229166 H 0.52916664 V 1.5862645 H 0.26458332 Z" />
    <path
       id="path350"
       style="fill:#e6e6e6;fill-rule:evenodd;stroke-width:0.264583"
       d="M 0.26458332,1.0583333 H 0.52916664 V 1.3216812 H 0.26458332 Z" />
    <path
       id="path351"
       style="fill:#e6e6e6;fill-rule:evenodd;stroke-width:0.264583"
       d="M 0.26458332,2.6458333 H 0.52916664 V 2.9091811 H 0.26458332 Z" />
    <path
       id="path352"
       style="fill:#e6e6e6;fill-rule:evenodd;stroke-width:0.264583"
       d="M 0.26458332,2.9104166 H 0.52916664 V 3.1737645 H 0.26458332 Z" />
    <path
       id="path353"
       style="fill:#e6e6e6;fill-rule:evenodd;stroke-width:0.264583"
       d="M 0.5291667,0.79374999 H 0.79375002 V 1.0570979 H 0.5291667 Z" />
    <path
       id="path354"
       style="fill:#e6e6e6;fill-rule:evenodd;stroke-width:0.264583"
       d="M 0.79374999,0.5291667 H 1.0583333 V 0.79251459 H 0.79374999 Z" />
    <path
       id="path355"
       style="fill:#e6e6e6;fill-rule:evenodd;stroke-width:0.264583"
       d="M 1.0583333,0.5291667 H 1.3229166 V 0.79251459 H 1.0583333 Z" />
    <path
       id="path356"
       style="fill:#e6e6e6;fill-rule:evenodd;stroke-width:0.264583"
       d="M 0.5291667,3.175 H 0.79375002 V 3.4383478 H 0.5291667 Z" />
    <path
       id="path357"
       style="fill:#e6e6e6;fill-rule:evenodd;stroke-width:0.264583"
       d="M 0.79374999,3.4395833 H 1.0583333 V 3.7029312 H 0.79374999 Z" />
    <path
       id="path358"
       style="fill:#e6e6e6;fill-rule:evenodd;stroke-width:0.264583"
       d="M 1.0583333,3.4395833 H 1.3229166 V 3.7029312 H 1.0583333 Z" />
    <path
       id="path359"
       style="fill:#e6e6e6;fill-rule:evenodd;stroke-width:0.264583"
       d="M 1.3229167,0.5291667 H 1.5875001 V 0.79251459 H 1.3229167 Z" />
    <path
       id="path360"
       style="fill:#e6e6e6;fill-rule:evenodd;stroke-width:0.264583"
       d="M 1.5875,0.5291667 H 1.8520833 V 0.79251459 H 1.5875 Z" />
    <path
       id="path361"
       style="fill:#e6e6e6;fill-rule:evenodd;stroke-width:0.264583"
       d="M 1.3229167,3.4395833 H 1.5875001 V 3.7029312 H 1.3229167 Z" />
    <path
       id="path362"
       style="fill:#e6e6e6;fill-rule:evenodd;stroke-width:0.264583"
       d="M 1.5875,3.4395833 H 1.8520833 V 3.7029312 H 1.5875 Z" />
    <path
       id="path363"
       style="fill:#e6e6e6;fill-rule:evenodd;stroke-width:0.264583"
       d="M 1.8520833,3.4395833 H 2.1166666 V 3.7029312 H 1.8520833 Z" />
    <path
       id="path364"
       style="fill:#e6e6e6;fill-rule:evenodd;stroke-width:0.264583"
       d="M 2.1166668,3.4395833 H 2.3812501 V 3.7029312 H 2.1166668 Z" />
    <path
       id="path365"
       style="fill:#e6e6e6;fill-rule:evenodd;stroke-width:0.264583"
       d="M 8.2020836,1.5875 H 8.4666669 V 1.8508479 H 8.2020836 Z" />
    <path
       id="path366"
       style="fill:#e6e6e6;fill-rule:evenodd;stroke-width:0.264583"
       d="M 8.2020836,1.8520833 H 8.4666669 V 2.1154312 H 8.2020836 Z" />
    <path
       id="path367"
       style="fill:#e6e6e6;fill-rule:evenodd;stroke-width:0.264583"
       d="M 8.2020836,2.1166666 H 8.4666669 V 2.3800144 H 8.2020836 Z" />
    <path
       id="path368"
       style="fill:#e6e6e6;fill-rule:evenodd;stroke-width:0.264583"
       d="M 8.2020836,2.3812499 H 8.4666669 V 2.6445978 H 8.2020836 Z" />
    <path
       id="path369"
       style="fill:#e6e6e6;fill-rule:evenodd;stroke-width:0.264583"
       d="M 7.9375,2.6458333 H 8.2020833 V 2.9091811 H 7.9375 Z" />
    <path
       id="path370"
       style="fill:#e6e6e6;fill-rule:evenodd;stroke-width:0.264583"
       d="M 7.9375,2.9104166 H 8.2020833 V 3.1737645 H 7.9375 Z" />
    <path
       id="path371"
       style="fill:#e6e6e6;fill-rule:evenodd;stroke-width:0.264583"
       d="M 7.6729169,3.175 H 7.9375002 V 3.4383478 H 7.6729169 Z" />
    <path
       id="path372"
       style="fill:#e6e6e6;fill-rule:evenodd;stroke-width:0.264583"
       d="M 7.4083333,3.4395833 H 7.6729166 V 3.7029312 H 7.4083333 Z" />
    <path
       id="path373"
       style="fill:#e6e6e6;fill-rule:evenodd;stroke-width:0.264583"
       d="M 7.1437502,3.4395833 H 7.4083335 V 3.7029312 H 7.1437502 Z" />
    <path
       id="path374"
       style="fill:#e6e6e6;fill-rule:evenodd;stroke-width:0.264583"
       d="M 6.8791666,3.4395833 H 7.1437499 V 3.7029312 H 6.8791666 Z" />
    <path
       id="path375"
       style="fill:#e6e6e6;fill-rule:evenodd;stroke-width:0.264583"
       d="M 7.9375,1.3229166 H 8.2020833 V 1.5862645 H 7.9375 Z" />
    <path
       id="path376"
       style="fill:#e6e6e6;fill-rule:evenodd;stroke-width:0.264583"
       d="M 7.9375,1.0583333 H 8.2020833 V 1.3216812 H 7.9375 Z" />
    <path
       id="path377"
       style="fill:#e6e6e6;fill-rule:evenodd;stroke-width:0.264583"
       d="M 7.6729169,0.79374999 H 7.9375002 V 1.0570979 H 7.6729169 Z" />
    <path
       id="path378"
       style="fill:#e6e6e6;fill-rule:evenodd;stroke-width:0.264583"
       d="M 7.4083333,0.5291667 H 7.6729166 V 0.79251459 H 7.4083333 Z" />
    <path
       id="path379"
       style="fill:#e6e6e6;fill-rule:evenodd;stroke-width:0.264583"
       d="M 7.1437502,0.5291667 H 7.4083335 V 0.79251459 H 7.1437502 Z" />
    <path
       id="path380"
       style="fill:#e6e6e6;fill-rule:evenodd;stroke-width:0.264583"
       d="M 6.8791666,0.5291667 H 7.1437499 V 0.79251459 H 6.8791666 Z" />
    <path
       id="path381"
       style="fill:#e6e6e6;fill-rule:evenodd;stroke-width:0.264583"
       d="M 6.3499999,0.5291667 H 6.6145832 V 0.79251459 H 6.3499999 Z" />
    <path
       id="path382"
       style="fill:#e6e6e6;fill-rule:evenodd;stroke-width:0.264583"
       d="M 6.6145835,0.5291667 H 6.8791668 V 0.79251459 H 6.6145835 Z" />
    <path
       id="path383"
       style="fill:#e6e6e6;fill-rule:evenodd;stroke-width:0.264583"
       d="M 1.8520833,0.5291667 H 2.1166666 V 0.79251459 H 1.8520833 Z" />
    <path
       id="path384"
       style="fill:#e6e6e6;fill-rule:evenodd;stroke-width:0.264583"
       d="M 2.1166668,0.5291667 H 2.3812501 V 0.79251459 H 2.1166668 Z" />
    <path
       id="path385"
       style="fill:#e6e6e6;fill-rule:evenodd;stroke-width:0.264583"
       d="M 2.3812499,0.5291667 H 2.6458332 V 0.79251459 H 2.3812499 Z" />
    <path
       id="path386"
       style="fill:#e6e6e6;fill-rule:evenodd;stroke-width:0.264583"
       d="M 2.6458333,0.5291667 H 2.9104166 V 0.79251459 H 2.6458333 Z" />
    <path
       id="path387"
       style="fill:#e6e6e6;fill-rule:evenodd;stroke-width:0.264583"
       d="M 2.9104166,0.5291667 H 3.1749999 V 0.79251459 H 2.9104166 Z" />
    <path
       id="path388"
       style="fill:#e6e6e6;fill-rule:evenodd;stroke-width:0.264583"
       d="M 0.52916667,1.8520833 H 0.79374999 V 2.1154312 H 0.52916667 Z" />
    <path
       id="path389"
       style="fill:#e6e6e6;fill-rule:evenodd;stroke-width:0.264583"
       d="M 0.52916667,2.1166667 H 0.79374999 V 2.3800146 H 0.52916667 Z" />
    <path
       id="path390"
       style="fill:#e6e6e6;fill-rule:evenodd;stroke-width:0.264583"
       d="M 0.52916667,2.38125 H 0.79374999 V 2.6445979 H 0.52916667 Z" />
    <path
       id="path391"
       style="fill:#e6e6e6;fill-rule:evenodd;stroke-width:0.264583"
       d="M 0.52916667,1.5875 H 0.79374999 V 1.8508479 H 0.52916667 Z" />
    <path
       id="path392"
       style="fill:#e6e6e6;fill-rule:evenodd;stroke-width:0.264583"
       d="M 0.79375,1.3229167 H 1.0583333 V 1.5862646 H 0.79375 Z" />
    <path
       id="path393"
       style="fill:#e6e6e6;fill-rule:evenodd;stroke-width:0.264583"
       d="M 1.0583333,1.0583333 H 1.3229166 V 1.3216812 H 1.0583333 Z" />
    <path
       id="path394"
       style="fill:#e6e6e6;fill-rule:evenodd;stroke-width:0.264583"
       d="M 1.3229167,0.79375 H 1.5875 V 1.0570979 H 1.3229167 Z" />
    <path
       id="path395"
       style="fill:#e6e6e6;fill-rule:evenodd;stroke-width:0.264583"
       d="M 1.5875,0.79375 H 1.8520833 V 1.0570979 H 1.5875 Z" />
    <path
       id="path396"
       style="fill:#e6e6e6;fill-rule:evenodd;stroke-width:0.264583"
       d="M 1.8520833,0.79375 H 2.1166666 V 1.0570979 H 1.8520833 Z" />
    <path
       id="path397"
       style="fill:#e6e6e6;fill-rule:evenodd;stroke-width:0.264583"
       d="M 2.1166667,0.79375 H 2.38125 V 1.0570979 H 2.1166667 Z" />
    <path
       id="path398"
       style="fill:#e6e6e6;fill-rule:evenodd;stroke-width:0.264583"
       d="M 2.38125,1.0583333 H 2.6458333 V 1.3216812 H 2.38125 Z" />
    <path
       id="path399"
       style="fill:#e6e6e6;fill-rule:evenodd;stroke-width:0.264583"
       d="M 2.6458333,1.3229167 H 2.9104166 V 1.5862646 H 2.6458333 Z" />
    <path
       id="path400"
       style="fill:#e6e6e6;fill-rule:evenodd;stroke-width:0.264583"
       d="M 2.9104167,1.5875 H 3.175 V 1.8508479 H 2.9104167 Z" />
    <path
       id="path401"
       style="fill:#e6e6e6;fill-rule:evenodd;stroke-width:0.264583"
       d="M 2.9104167,1.8520833 H 3.175 V 2.1154312 H 2.9104167 Z" />
    <path
       id="path402"
       style="fill:#e6e6e6;fill-rule:evenodd;stroke-width:0.264583"
       d="M 2.9104167,2.1166667 H 3.175 V 2.3800146 H 2.9104167 Z" />
    <path
       id="path403"
       style="fill:#e6e6e6;fill-rule:evenodd;stroke-width:0.264583"
       d="M 2.9104167,2.38125 H 3.175 V 2.6445979 H 2.9104167 Z" />
    <path
       id="path404"
       style="fill:#e6e6e6;fill-rule:evenodd;stroke-width:0.264583"
       d="M 2.6458333,2.6458333 H 2.9104166 V 2.9091812 H 2.6458333 Z" />
    <path
       id="path405"
       style="fill:#e6e6e6;fill-rule:evenodd;stroke-width:0.264583"
       d="M 0.79375,2.6458333 H 1.0583333 V 2.9091812 H 0.79375 Z" />
    <path
       id="path406"
       style="fill:#e6e6e6;fill-rule:evenodd;stroke-width:0.264583"
       d="M 1.0583333,2.9104167 H 1.3229166 V 3.1737646 H 1.0583333 Z" />
    <path
       id="path407"
       style="fill:#e6e6e6;fill-rule:evenodd;stroke-width:0.264583"
       d="M 1.3229167,3.175 H 1.5875 V 3.4383479 H 1.3229167 Z" />
    <path
       id="path408"
       style="fill:#e6e6e6;fill-rule:evenodd;stroke-width:0.264583"
       d="M 1.5875,3.175 H 1.8520833 V 3.4383479 H 1.5875 Z" />
    <path
       id="path409"
       style="fill:#e6e6e6;fill-rule:evenodd;stroke-width:0.264583"
       d="M 1.8520833,3.175 H 2.1166666 V 3.4383479 H 1.8520833 Z" />
    <path
       id="path410"
       style="fill:#e6e6e6;fill-rule:evenodd;stroke-width:0.264583"
       d="M 2.1166667,3.175 H 2.38125 V 3.4383479 H 2.1166667 Z" />
    <path
       id="path411"
       style="fill:#e6e6e6;fill-rule:evenodd;stroke-width:0.264583"
       d="M 2.38125,2.9104167 H 2.6458333 V 3.1737646 H 2.38125 Z" />
    <path
       id="path412"
       style="fill:#e6e6e6;fill-rule:evenodd;stroke-width:0.264583"
       d="M 1.3229167,1.0583333 H 1.5875 V 1.3216812 H 1.3229167 Z" />
    <path
       id="path413"
       style="fill:#e6e6e6;fill-rule:evenodd;stroke-width:0.264583"
       d="M 1.5875,1.0583333 H 1.8520833 V 1.3216812 H 1.5875 Z" />
    <path
       id="path414"
       style="fill:#e6e6e6;fill-rule:evenodd;stroke-width:0.264583"
       d="M 1.8520833,1.0583333 H 2.1166666 V 1.3216812 H 1.8520833 Z" />
    <path
       id="path415"
       style="fill:#e6e6e6;fill-rule:evenodd;stroke-width:0.264583"
       d="M 2.1166667,1.0583333 H 2.38125 V 1.3216812 H 2.1166667 Z" />
    <path
       id="path416"
       style="fill:#e6e6e6;fill-rule:evenodd;stroke-width:0.264583"
       d="M 1.0583333,1.3229167 H 1.3229166 V 1.5862646 H 1.0583333 Z" />
    <path
       id="path417"
       style="fill:#e6e6e6;fill-rule:evenodd;stroke-width:0.264583"
       d="M 1.3229167,1.3229167 H 1.5875 V 1.5862646 H 1.3229167 Z" />
    <path
       id="path418"
       style="fill:#e6e6e6;fill-rule:evenodd;stroke-width:0.264583"
       d="M 1.5875,1.3229167 H 1.8520833 V 1.5862646 H 1.5875 Z" />
    <path
       id="path419"
       style="fill:#e6e6e6;fill-rule:evenodd;stroke-width:0.264583"
       d="M 1.8520833,1.3229167 H 2.1166666 V 1.5862646 H 1.8520833 Z" />
    <path
       id="path420"
       style="fill:#e6e6e6;fill-rule:evenodd;stroke-width:0.264583"
       d="M 2.1166667,1.3229167 H 2.38125 V 1.5862646 H 2.1166667 Z" />
    <path
       id="path421"
       style="fill:#e6e6e6;fill-rule:evenodd;stroke-width:0.264583"
       d="M 2.38125,1.3229167 H 2.6458333 V 1.5862646 H 2.38125 Z" />
    <path
       id="path422"
       style="fill:#e6e6e6;fill-rule:evenodd;stroke-width:0.264583"
       d="M 0.79375,1.5875 H 1.0583333 V 1.8508479 H 0.79375 Z" />
    <path
       id="path423"
       style="fill:#e6e6e6;fill-rule:evenodd;stroke-width:0.264583"
       d="M 1.0583333,1.5875 H 1.3229166 V 1.8508479 H 1.0583333 Z" />
    <path
       id="path424"
       style="fill:#e6e6e6;fill-rule:evenodd;stroke-width:0.264583"
       d="M 1.3229167,1.5875 H 1.5875 V 1.8508479 H 1.3229167 Z" />
    <path
       id="path425"
       style="fill:#e6e6e6;fill-rule:evenodd;stroke-width:0.264583"
       d="M 1.5875,1.5875 H 1.8520833 V 1.8508479 H 1.5875 Z" />
    <path
       id="path426"
       style="fill:#e6e6e6;fill-rule:evenodd;stroke-width:0.264583"
       d="M 1.8520833,1.5875 H 2.1166666 V 1.8508479 H 1.8520833 Z" />
    <path
       id="path427"
       style="fill:#e6e6e6;fill-rule:evenodd;stroke-width:0.264583"
       d="M 2.1166667,1.5875 H 2.38125 V 1.8508479 H 2.1166667 Z" />
    <path
       id="path428"
       style="fill:#e6e6e6;fill-rule:evenodd;stroke-width:0.264583"
       d="M 2.38125,1.5875 H 2.6458333 V 1.8508479 H 2.38125 Z" />
    <path
       id="path429"
       style="fill:#e6e6e6;fill-rule:evenodd;stroke-width:0.264583"
       d="M 2.6458333,1.5875 H 2.9104166 V 1.8508479 H 2.6458333 Z" />
    <path
       id="path430"
       style="fill:#e6e6e6;fill-rule:evenodd;stroke-width:0.264583"
       d="M 2.6458333,1.8520833 H 2.9104166 V 2.1154312 H 2.6458333 Z" />
    <path
       id="path431"
       style="fill:#e6e6e6;fill-rule:evenodd;stroke-width:0.264583"
       d="M 2.38125,1.8520833 H 2.6458333 V 2.1154312 H 2.38125 Z" />
    <path
       id="path432"
       style="fill:#e6e6e6;fill-rule:evenodd;stroke-width:0.264583"
       d="M 2.1166667,1.8520833 H 2.38125 V 2.1154312 H 2.1166667 Z" />
    <path
       id="path433"
       style="fill:#e6e6e6;fill-rule:evenodd;stroke-width:0.264583"
       d="M 1.8520833,1.8520833 H 2.1166666 V 2.1154312 H 1.8520833 Z" />
    <path
       id="path434"
       style="fill:#e6e6e6;fill-rule:evenodd;stroke-width:0.264583"
       d="M 1.5875,1.8520833 H 1.8520833 V 2.1154312 H 1.5875 Z" />
    <path
       id="path435"
       style="fill:#e6e6e6;fill-rule:evenodd;stroke-width:0.264583"
       d="M 1.3229167,1.8520833 H 1.5875 V 2.1154312 H 1.3229167 Z" />
    <path
       id="path436"
       style="fill:#e6e6e6;fill-rule:evenodd;stroke-width:0.264583"
       d="M 1.0583333,1.8520833 H 1.3229166 V 2.1154312 H 1.0583333 Z" />
    <path
       id="path437"
       style="fill:#e6e6e6;fill-rule:evenodd;stroke-width:0.264583"
       d="M 0.79375,1.8520833 H 1.0583333 V 2.1154312 H 0.79375 Z" />
    <path
       id="path438"
       style="fill:#e6e6e6;fill-rule:evenodd;stroke-width:0.264583"
       d="M 0.79375,2.1166667 H 1.0583333 V 2.3800146 H 0.79375 Z" />
    <path
       id="path439"
       style="fill:#e6e6e6;fill-rule:evenodd;stroke-width:0.264583"
       d="M 1.0583333,2.1166667 H 1.3229166 V 2.3800146 H 1.0583333 Z" />
    <path
       id="path440"
       style="fill:#e6e6e6;fill-rule:evenodd;stroke-width:0.264583"
       d="M 1.3229167,2.1166667 H 1.5875 V 2.3800146 H 1.3229167 Z" />
    <path
       id="path441"
       style="fill:#e6e6e6;fill-rule:evenodd;stroke-width:0.264583"
       d="M 1.5875,2.1166667 H 1.8520833 V 2.3800146 H 1.5875 Z" />
    <path
       id="path442"
       style="fill:#e6e6e6;fill-rule:evenodd;stroke-width:0.264583"
       d="M 1.8520833,2.1166667 H 2.1166666 V 2.3800146 H 1.8520833 Z" />
    <path
       id="path443"
       style="fill:#e6e6e6;fill-rule:evenodd;stroke-width:0.264583"
       d="M 2.1166667,2.1166667 H 2.38125 V 2.3800146 H 2.1166667 Z" />
    <path
       id="path444"
       style="fill:#e6e6e6;fill-rule:evenodd;stroke-width:0.264583"
       d="M 2.38125,2.1166667 H 2.6458333 V 2.3800146 H 2.38125 Z" />
    <path
       id="path445"
       style="fill:#e6e6e6;fill-rule:evenodd;stroke-width:0.264583"
       d="M 2.6458333,2.1166667 H 2.9104166 V 2.3800146 H 2.6458333 Z" />
    <path
       id="path446"
       style="fill:#e6e6e6;fill-rule:evenodd;stroke-width:0.264583"
       d="M 2.6458333,2.38125 H 2.9104166 V 2.6445979 H 2.6458333 Z" />
    <path
       id="path447"
       style="fill:#e6e6e6;fill-rule:evenodd;stroke-width:0.264583"
       d="M 2.38125,2.38125 H 2.6458333 V 2.6445979 H 2.38125 Z" />
    <path
       id="path448"
       style="fill:#e6e6e6;fill-rule:evenodd;stroke-width:0.264583"
       d="M 2.1166667,2.38125 H 2.38125 V 2.6445979 H 2.1166667 Z" />
    <path
       id="path449"
       style="fill:#e6e6e6;fill-rule:evenodd;stroke-width:0.264583"
       d="M 1.8520833,2.38125 H 2.1166666 V 2.6445979 H 1.8520833 Z" />
    <path
       id="path450"
       style="fill:#e6e6e6;fill-rule:evenodd;stroke-width:0.264583"
       d="M 1.5875,2.38125 H 1.8520833 V 2.6445979 H 1.5875 Z" />
    <path
       id="path451"
       style="fill:#e6e6e6;fill-rule:evenodd;stroke-width:0.264583"
       d="M 1.3229167,2.38125 H 1.5875 V 2.6445979 H 1.3229167 Z" />
    <path
       id="path452"
       style="fill:#e6e6e6;fill-rule:evenodd;stroke-width:0.264583"
       d="M 1.0583333,2.38125 H 1.3229166 V 2.6445979 H 1.0583333 Z" />
    <path
       id="path453"
       style="fill:#e6e6e6;fill-rule:evenodd;stroke-width:0.264583"
       d="M 0.79375,2.38125 H 1.0583333 V 2.6445979 H 0.79375 Z" />
    <path
       id="path454"
       style="fill:#e6e6e6;fill-rule:evenodd;stroke-width:0.264583"
       d="M 1.0583333,2.6458333 H 1.3229166 V 2.9091812 H 1.0583333 Z" />
    <path
       id="path455"
       style="fill:#e6e6e6;fill-rule:evenodd;stroke-width:0.264583"
       d="M 1.3229167,2.6458333 H 1.5875 V 2.9091812 H 1.3229167 Z" />
    <path
       id="path456"
       style="fill:#e6e6e6;fill-rule:evenodd;stroke-width:0.264583"
       d="M 1.5875,2.6458333 H 1.8520833 V 2.9091812 H 1.5875 Z" />
    <path
       id="path457"
       style="fill:#e6e6e6;fill-rule:evenodd;stroke-width:0.264583"
       d="M 1.8520833,2.6458333 H 2.1166666 V 2.9091812 H 1.8520833 Z" />
    <path
       id="path458"
       style="fill:#e6e6e6;fill-rule:evenodd;stroke-width:0.264583"
       d="M 2.1166667,2.6458333 H 2.38125 V 2.9091812 H 2.1166667 Z" />
    <path
       id="path459"
       style="fill:#e6e6e6;fill-rule:evenodd;stroke-width:0.264583"
       d="M 2.38125,2.6458333 H 2.6458333 V 2.9091812 H 2.38125 Z" />
    <path
       id="path460"
       style="fill:#e6e6e6;fill-rule:evenodd;stroke-width:0.264583"
       d="M 2.1166667,2.9104167 H 2.38125 V 3.1737646 H 2.1166667 Z" />
    <path
       id="path461"
       style="fill:#e6e6e6;fill-rule:evenodd;stroke-width:0.264583"
       d="M 1.8520833,2.9104167 H 2.1166666 V 3.1737646 H 1.8520833 Z" />
    <path
       id="path462"
       style="fill:#e6e6e6;fill-rule:evenodd;stroke-width:0.264583"
       d="M 1.5875,2.9104167 H 1.8520833 V 3.1737646 H 1.5875 Z" />
    <path
       id="path463"
       style="fill:#e6e6e6;fill-rule:evenodd;stroke-width:0.264583"
       d="M 1.3229167,2.9104167 H 1.5875 V 3.1737646 H 1.3229167 Z" />
    <path
       id="path464"
       style="fill:#e6e6e6;fill-rule:evenodd;stroke-width:0.264583"
       d="M 6.6145833,2.1166667 H 6.8791666 V 2.3800146 H 6.6145833 Z" />
    <path
       id="path465"
       style="fill:#e6e6e6;fill-rule:evenodd;stroke-width:0.264583"
       d="M 6.6145833,1.8520833 H 6.8791666 V 2.1154312 H 6.6145833 Z" />
    <path
       id="path466"
       style="fill:#e6e6e6;fill-rule:evenodd;stroke-width:0.264583"
       d="M 6.35,2.1166667 H 6.6145833 V 2.3800146 H 6.35 Z" />
    <path
       id="path467"
       style="fill:#e6e6e6;fill-rule:evenodd;stroke-width:0.264583"
       d="M 6.35,1.8520833 H 6.6145833 V 2.1154312 H 6.35 Z" />
    <path
       id="path468"
       style="fill:#e6e6e6;fill-rule:evenodd;stroke-width:0.264583"
       d="M 6.0854167,1.5875 H 6.35 V 1.8508479 H 6.0854167 Z" />
    <path
       id="path469"
       style="fill:#e6e6e6;fill-rule:evenodd;stroke-width:0.264583"
       d="M 5.8208333,1.3229167 H 6.0854166 V 1.5862646 H 5.8208333 Z" />
    <path
       id="path470"
       style="fill:#e6e6e6;fill-rule:evenodd;stroke-width:0.264583"
       d="M 6.0854167,2.38125 H 6.35 V 2.6445979 H 6.0854167 Z" />
    <path
       id="path471"
       style="fill:#e6e6e6;fill-rule:evenodd;stroke-width:0.264583"
       d="M 5.8208333,2.6458333 H 6.0854166 V 2.9091812 H 5.8208333 Z" />
    <path
       id="path472"
       style="fill:#e6e6e6;fill-rule:evenodd;stroke-width:0.264583"
       d="M 6.8791667,2.38125 H 7.14375 V 2.6445979 H 6.8791667 Z" />
    <path
       id="path473"
       style="fill:#e6e6e6;fill-rule:evenodd;stroke-width:0.264583"
       d="M 7.14375,2.6458333 H 7.4083333 V 2.9091812 H 7.14375 Z" />
    <path
       id="path474"
       style="fill:#e6e6e6;fill-rule:evenodd;stroke-width:0.264583"
       d="M 6.8791667,1.5875 H 7.14375 V 1.8508479 H 6.8791667 Z" />
    <path
       id="path475"
       style="fill:#e6e6e6;fill-rule:evenodd;stroke-width:0.264583"
       d="M 7.14375,1.3229167 H 7.4083333 V 1.5862646 H 7.14375 Z" />
  </g>
</svg>
